<?xml version="1.0" encoding="utf-8"?>
<!-- Generator: Adobe Illustrator 26.2.1, SVG Export Plug-In . SVG Version: 6.00 Build 0)  -->
<svg version="1.1" id="Capa_1" xmlns="http://www.w3.org/2000/svg" xmlns:xlink="http://www.w3.org/1999/xlink" x="0px" y="0px"
	 viewBox="0 0 120 120" style="enable-background:new 0 0 120 120;" xml:space="preserve">
<style type="text/css">
	.st0{clip-path:url(#SVGID_00000149375628943097790880000013300466230566979463_);}
	.st1{fill:url(#Trazado_103_00000137851268074895804820000010126668807317828287_);}
	.st2{fill:#2D2D2D;}
	.st3{fill:#473C32;}
	.st4{fill:url(#Trazado_106_00000032627010211728363290000002133229638235249338_);}
	.st5{fill:url(#Trazado_107_00000089560407218794877700000015331042524769494163_);}
	.st6{fill:url(#Trazado_108_00000088133399315201226260000014471273147208929977_);}
	.st7{fill:url(#Trazado_109_00000163064094833729418560000003823060789524375467_);}
</style>
<g>
	<defs>
		<rect id="SVGID_1_" x="20.3" y="8" width="78.4" height="103.2"/>
	</defs>
	<clipPath id="SVGID_00000055678853366688914230000003933482271282981793_">
		<use xlink:href="#SVGID_1_"  style="overflow:visible;"/>
	</clipPath>
	
		<g id="Grupo_111" transform="translate(0 0)" style="clip-path:url(#SVGID_00000055678853366688914230000003933482271282981793_);">
		
			<linearGradient id="Trazado_103_00000015314235358854719290000007970020435231455896_" gradientUnits="userSpaceOnUse" x1="5.7485" y1="110.8968" x2="5.7485" y2="109.9846" gradientTransform="matrix(59.488 0 0 -35.745 -277.5418 4042.6494)">
			<stop  offset="0" style="stop-color:#3F3F3F"/>
			<stop  offset="1" style="stop-color:#7E7E7E"/>
		</linearGradient>
		<path id="Trazado_103" style="fill:url(#Trazado_103_00000015314235358854719290000007970020435231455896_);" d="M67.7,111.2
			c13.2,0,23.8-10.7,23.8-23.8c0,0,0,0,0,0v-3.3h0c-0.5-3-12.4-5.4-27.1-5.4s-26.6,2.4-27.1,5.4h0v3.3c0,13.2,10.7,23.8,23.8,23.8
			c0,0,0,0,0,0H67.7z"/>
		<path id="Trazado_104" class="st2" d="M91.6,83.5c0,3.1-12.1,5.6-27.1,5.6s-27.1-2.5-27.1-5.6s12.1-5.6,27.1-5.6
			S91.6,80.4,91.6,83.5"/>
		<path id="Trazado_105" class="st3" d="M56.6,86.9c0-0.1-0.1-0.3-0.1-0.4C56.5,86.7,56.6,86.8,56.6,86.9"/>
		
			<linearGradient id="Trazado_106_00000001662388054381559650000001261983888381240194_" gradientUnits="userSpaceOnUse" x1="6.5705" y1="114.3249" x2="6.2375" y2="114.0832" gradientTransform="matrix(51.5545 0 0 -57.9482 -273.7307 6679.7666)">
			<stop  offset="0" style="stop-color:#CBAC91"/>
			<stop  offset="1" style="stop-color:#CA8139"/>
		</linearGradient>
		<path id="Trazado_106" style="fill:url(#Trazado_106_00000001662388054381559650000001261983888381240194_);" d="M80.6,85
			c-1.9-1.2-3-3.5-4-5.4c-1.2-2.2-2-3.8-4.2-5.1c-1.2-0.7-2.9-0.4-4.2-0.8c-1.2-0.4-4.5,0.5-5-0.8c-0.5-2.2-0.8-4.4-0.8-6.7
			c-0.1-1.7,1.8-4.9,2.2-6.6c0.5-1.7,1.5-3.1,2.9-4.1c1.5-1.3,1.8-1.9,3.6-2.7c1.5-1.1,4-0.3,5.4-0.2c1.6,0.1,1.8-2.4,0.2-2.5
			c-1.4-0.1-2.8-0.2-4.2-0.2c-0.2-0.1-0.4-0.1-0.6,0c-4.2,0-8.9,3.3-12,6.3c-2.5-4.6-2.6-9.5-6.8-11.5c0-0.1-0.1-0.3-0.1-0.4
			c0-0.1,0-0.2,0-0.3c0,0,0-0.2,0-0.3c0-1-2.5-2.1-2.1-2.9c0,0,0.1-0.1,0.1-0.2c0-0.1,0.1-0.2,0.1-0.3c0.1-0.2,0.2-0.4,0.4-0.5
			c0.1-0.1,0.2-0.3,0.4-0.4c0.2-0.2,0.3-0.3,0.5-0.4c0.3-0.2,0.6-0.5,0.9-0.6c0.2-0.1,0.4-0.2,0.7-0.3c0,0,0,0,0.1,0l0.1,0
			c0.1,0,0.3-0.1,0.4-0.1c0.7-0.1,1.1-0.8,1-1.5c-0.1-0.7-0.8-1.1-1.5-1c-2.4,0.5-4.4,2.1-5.4,4.3c-0.6,0.9-0.9,2.1-0.8,3.2
			c0,0,0,0-0.1,0c-0.3-0.1-0.6-0.2-1-0.3c-1.2-0.3-2.5,0.3-3.6-0.4c-2.5-1.6-2.7-5.1-3-7.8c-0.1-1.6-2.6-1.2-2.5,0.4
			c0.2,2.4,0.5,5,1.8,7.1c1.2,1.8,3,3.1,5.1,3.5c2.1,0.4,4,1.3,5.7,2.5c1.7,1.4,2.9,3.2,3.4,5.3c0.6,2.2,0.4,4.5-0.4,6.7
			c-0.7,1.8-0.2,3.7-1.2,5.4c-2.6-1.7-7.6-2.1-10.3-0.2c-1.5,1.1-2.3,2.8-3.2,4.4c-0.8,1.4-1.9,3.1-3.7,2.8
			c-1.6-0.3-1.8,2.2-0.2,2.5c1.7,0.2,3.3-0.4,4.4-1.7c1.2-1.3,1.9-2.9,2.8-4.3c1.6-2.6,7.2,0.4,9.7,2.2c-1.4,3.5-0.3,4.2,1.3,7.7
			c1.1,2.3,1.8,1.5,3.7,3.2c0.8,0.7-0.7,3.2-0.2,4.1c3.2,0.2,6.8,0.3,10.5,0.2c4.6-0.1,9.1-0.5,13.6-1.1
			C80.5,85.1,80.5,85.1,80.6,85"/>
		
			<linearGradient id="Trazado_107_00000036218081716037712720000002507967624176968865_" gradientUnits="userSpaceOnUse" x1="13.2875" y1="110.5051" x2="13.2875" y2="109.5929" gradientTransform="matrix(21.7204 0 0 -34.6413 -258.3582 3881.582)">
			<stop  offset="0" style="stop-color:#E1EEE7"/>
			<stop  offset="1" style="stop-color:#58B083"/>
		</linearGradient>
		<path id="Trazado_107" style="fill:url(#Trazado_107_00000036218081716037712720000002507967624176968865_);" d="M36.1,60.7
			c0-0.3,0-0.7,0-1c0.1-0.9-0.2-1.8-0.6-2.5c-0.5-0.6-1.2-1-2-1.1c-0.5,0-1-0.2-1.3-0.6c-0.2-0.3-0.4-0.7-0.6-1
			c-1-1.2-2.8-1.2-4-0.2c-0.1,0.1-0.2,0.2-0.3,0.4c-1.8-0.2-3.7,0.4-5,1.6c-1,1.1-1,2.7,0.6,3.1c0.1,0,0.2,0,0.3,0
			c-0.2,0.5-0.2,1.2,0,1.7c0.1,0.4,0.4,0.7,0.7,0.9c0.4,0.3,0.9,0.5,1.3,0.7c0.6,0.3,0.5,0.8,0.2,1.4c-0.2,0.4-0.4,0.9-0.4,1.4
			c-0.1,0.8,0.2,1.6,0.8,2.1c-1.2,0.4-2.1,1.3-2.6,2.5c-0.4,1-0.1,2.2,0.7,2.9c-0.9,0.7-2.4,0.5-3,1.4c-0.7,1,0.2,2.3,1.1,3
			c0.9,0.7,2.1,1.3,2.4,2.4l0.2,0c0.6,0.5,1.2,0.9,1.8,1.3c0.1,0.2,0.1,0.5,0.2,0.7c0.1,0.7,0.2,1.3,0.3,2c0.2,0.7,0.7,1.2,1.4,1.4
			c1.1,0.2,1.9-1,2.9-1.5c0.9-0.3,1.9-0.3,2.9-0.1c1,0.2,2-0.1,2.6-0.9c0.7-1-0.1-2.6,0.7-3.6c0.7-1,2.4-0.9,2.9-2
			c0.5-1-0.5-2.2-1.5-2.8c-1-0.5-2.3-1-2.7-2.1l-0.2,0.1c-0.2-0.1-0.5-0.3-0.7-0.4c0-0.1,0-0.1,0-0.2c0-0.7,0-1.4-0.1-2
			c-0.1-0.3-0.2-0.6-0.3-0.8c1.8-0.7,3.3-2.2,3.9-4C38.7,63.1,37.7,61.4,36.1,60.7"/>
		
			<linearGradient id="Trazado_108_00000143593533882754471780000006114086962250095520_" gradientUnits="userSpaceOnUse" x1="6.2093" y1="110.5572" x2="6.2093" y2="109.645" gradientTransform="matrix(54.0232 0 0 -35.2341 -288.4156 3903.3953)">
			<stop  offset="0" style="stop-color:#E1EEE7"/>
			<stop  offset="1" style="stop-color:#58B083"/>
		</linearGradient>
		<path id="Trazado_108" style="fill:url(#Trazado_108_00000143593533882754471780000006114086962250095520_);" d="M71.5,26.2
			c-0.3-0.9-0.9-1.7-1.8-2.1c-0.2-2.2-1.3-4.3-3.2-5.6c-0.8-0.5-1.7-0.6-2.6-0.2c-1.4-0.7-3-1-4.5-0.7c-0.1,0-0.1,0-0.2,0
			c-1.1-2.2-3.3-4.5-5.6-5.2c-2-3-5.4-4.6-8.9-4.5c-3.7,0.3-6.9,2.6-8.4,6c-0.7,0.2-1.4,0.4-2.1,0.6c-1.9,0.4-3.6,1.2-5.2,2.4
			c-1.2,1-1.9,2.4-2,4c0,1-0.4,1.9-1.2,2.5c-0.7,0.5-1.4,1-2,1.6c-1.2,1.1-1.8,2.8-1.6,4.4c0.3,1.3,1.2,2.3,2.5,2.7
			c-0.3,3.1,1.2,6,4,7.4c2.4,1.1,5.7,0.2,6.3-2.6c0-0.1,0-0.3-0.1-0.4c2.1,0.1,4.1-0.8,5.4-2.5c0.5-0.8,1-1.7,1.4-2.6
			c0.6-1.3,1.7-1.2,2.9-1.1c0.6,0.1,1.3,0.1,1.9,0.1c0.7,1.3,2.2,2,3.6,1.9c0,0,0.1,0,0.1,0c0.9,1.7,2.2,3.1,3.9,4.1
			c1.5,2.2,3.8,3.7,5.9,3.8c2.2,0,4.1-1.6,4.4-3.7c0.4-0.1,0.8-0.2,1.2-0.3c1.1-0.2,2.1-0.6,2.9-1.4c0.6-0.8,0.9-1.7,0.8-2.7
			c-0.1-0.6,0-1.3,0.4-1.7c0.4-0.3,0.7-0.7,1-1C71.7,28.4,71.8,27.3,71.5,26.2"/>
		
			<linearGradient id="Trazado_109_00000020371382194826909640000009762680724094743696_" gradientUnits="userSpaceOnUse" x1="9.6299" y1="108.8887" x2="9.6299" y2="107.9766" gradientTransform="matrix(30.8467 0 0 -30.163 -212.3309 3319.7478)">
			<stop  offset="0" style="stop-color:#BCEAD2"/>
			<stop  offset="1" style="stop-color:#58B083"/>
		</linearGradient>
		<path id="Trazado_109" style="fill:url(#Trazado_109_00000020371382194826909640000009762680724094743696_);" d="M85.2,58.1
			c0,0,0-0.1,0-0.1c2.5-1,5.3-2.7,6.6-4.3c3.4-1.6,6.1-4.1,6.8-6.4c0.7-2.3-0.7-4.1-3.6-4.7c0-0.4,0-0.9,0-1.3c0.1-1.1-0.2-2.2-1-3
			c-1-0.7-2.2-1-3.4-0.8c-1.1,0.1-1.7,0-2.2-0.4c-0.3-0.4-0.7-0.8-1-1.1c-1.2-0.7-2.6-0.9-3.9-0.5c-1.3,0.3-2.4,1-3.3,1.9
			c-3.1,0.3-6,1.5-8.4,3.5c-1.8,1.7-1.7,3.7,0.9,3.8c0.2,0,0.3,0,0.4-0.1c-0.4,0.7-0.4,1.5-0.1,2.2c0.2,0.4,0.6,0.8,1.1,1
			c0.7,0.3,1.5,0.4,2.2,0.5c1.1,0.3,0.8,0.9,0.3,1.7c-0.4,0.6-0.6,1.2-0.7,1.8c-0.1,1,0.3,2,1.2,2.5c-1.8,0.8-3.4,2.1-4.4,3.9
			c-0.8,1.7,0.1,3.1,1.7,3.8c2.2,0.8,4.5,0.8,6.7,0C83.1,61.7,84.6,60.1,85.2,58.1"/>
	</g>
</g>
</svg>
