<?xml version="1.0" encoding="utf-8"?>
<!-- Generator: Adobe Illustrator 26.3.1, SVG Export Plug-In . SVG Version: 6.00 Build 0)  -->
<svg version="1.1" id="Capa_1" xmlns="http://www.w3.org/2000/svg" xmlns:xlink="http://www.w3.org/1999/xlink" x="0px" y="0px"
	 viewBox="0 0 120 120" style="enable-background:new 0 0 120 120;" xml:space="preserve">
<style type="text/css">
	.st0{fill:url(#Trazado_170_00000165199487519614100700000006425259268326271113_);}
	.st1{clip-path:url(#SVGID_00000006670692747799464370000007797813702118423482_);}
	.st2{fill:#483030;}
	.st3{fill:#7C4D41;}
	.st4{fill:url(#Trazado_160_00000122695147388888013620000009043126742392553912_);}
	.st5{fill:url(#Trazado_163_00000078044295694878897940000015544420691007666833_);}
	.st6{fill:url(#Trazado_180_00000128452380770238940590000011019790315573053071_);}
	.st7{fill:url(#Trazado_181_00000037663694431451414610000010029198832323732147_);}
	.st8{fill:url(#Trazado_182_00000105413504544367627740000007033120493092041600_);}
	.st9{fill:url(#Trazado_164_00000091707451306540126800000013870341963436737154_);}
	.st10{fill:url(#Trazado_165_00000038394040343117267310000016672666443019722375_);}
	.st11{fill:url(#Trazado_166_00000163060809002724883070000010494357041275355529_);}
	.st12{fill:url(#Trazado_167_00000145038777368887948910000017871344900884691626_);}
	.st13{fill:url(#Trazado_168_00000060709126653789331510000010947501420463978116_);}
	.st14{fill:url(#Trazado_169_00000016778381232049054050000004976520361359140787_);}
</style>
<g id="Grupo_142" transform="translate(-794.146 -498.445)">
	
		<linearGradient id="Trazado_170_00000045619633871619192100000017677232274465638042_" gradientUnits="userSpaceOnUse" x1="794.2487" y1="619.3678" x2="794.2487" y2="619.0682" gradientTransform="matrix(-331.709 0 0 234.553 264313.5938 -144686.0781)">
		<stop  offset="0" style="stop-color:#BBD1BB"/>
		<stop  offset="1" style="stop-color:#EFFAEF"/>
	</linearGradient>
	<path id="Trazado_170" style="fill:url(#Trazado_170_00000045619633871619192100000017677232274465638042_);" d="M804.4,567.9
		c0-27.4,22.3-49.7,49.7-49.7s49.7,22.3,49.7,49.7C903.8,595.4,804.4,595.4,804.4,567.9z"/>
	<g id="Grupo_123" transform="translate(794.146 498.445)">
		<g id="Grupo_122">
			<g>
				<defs>
					<rect id="SVGID_1_" x="10.3" y="19.8" width="99.4" height="80.4"/>
				</defs>
				<clipPath id="SVGID_00000139287917490457699310000016581352673226958229_">
					<use xlink:href="#SVGID_1_"  style="overflow:visible;"/>
				</clipPath>
				<g id="Grupo_121" style="clip-path:url(#SVGID_00000139287917490457699310000016581352673226958229_);">
					<path id="Trazado_158" class="st2" d="M90,83.4c0,2-13.5,3.6-30.1,3.6s-30.1-1.6-30.1-3.6s13.5-3.6,30.1-3.6S90,81.4,90,83.4"
						/>
					<path id="Trazado_159" class="st3" d="M53.8,41.9C53.8,41.9,53.7,41.8,53.8,41.9"/>
					
						<linearGradient id="Trazado_160_00000176752618229467082980000003056569739835672234_" gradientUnits="userSpaceOnUse" x1="1.6553" y1="117.7567" x2="1.6553" y2="117.457" gradientTransform="matrix(118.9031 0 0 -146.634 -139.2162 17309.0566)">
						<stop  offset="0" style="stop-color:#7C4D41"/>
						<stop  offset="1" style="stop-color:#B66F5D"/>
					</linearGradient>
					<path id="Trazado_160" style="fill:url(#Trazado_160_00000176752618229467082980000003056569739835672234_);" d="M74.5,52
						c-1.2-0.3-2.4-0.3-3.7-0.2c0,0,0,0,0,0c0,0,0,0,0,0c0.2-0.9,0.3-1.7,0.2-2.6c-0.2-1.4-0.5-2.7-0.9-4.1
						c-0.2-0.7-0.9-1.1-1.6-0.9s-1.1,0.9-0.9,1.6c0.4,1,0.6,2.1,0.8,3.1c0.1,0.6,0.1,1.1,0,1.7l0,0c0,0.3-0.1,0.5-0.2,0.8
						c-0.1,0.3-0.3,0.7-0.5,1l0,0l0,0c0,0-0.1,0.1-0.1,0.1c-0.1,0.1-0.2,0.2-0.3,0.3c-0.1,0.1-0.2,0.2-0.3,0.3c0,0,0.2-0.2,0.1-0.1
						l-0.1,0.1c-0.1,0-0.1,0.1-0.2,0.1c-0.3,0.2-0.5,0.3-0.8,0.5c-0.5,0.3-1.1,0.6-1.5,1c-0.2,0.2-0.5,0.4-0.7,0.6c0,0,0,0,0,0
						c0,0,0,0,0,0c-0.9-1.9-1.8-3.2-3.6-4.1c-0.3-0.1-0.5-0.3-0.6-0.6v0c-0.6-1.4-1.7-2.9-2.1-4.4c-0.5-1.6-1.4-3.1-2.8-4
						c-0.3-0.2-0.7-0.2-1-0.1c-0.3,0.1-0.6,0.3-0.8,0.6c-0.4,0.7,0.4,0.1,1,0.6c0.1,0,0.1,0.1,0.2,0.1c0,0-0.1-0.1-0.1-0.1
						c0,0,0,0,0,0c0.1,0.1,0.2,0.1,0.2,0.2c0.1,0.1,0.2,0.2,0.3,0.3c0,0,0,0,0,0c0,0,0,0,0,0c0.3,0.4,0.5,0.8,0.7,1.2
						c0.4,0.9,0.5,3.1,0.7,4.1c0.1,0.4,0.6,1.7,0.7,2.1c0,0,0,0,0,0c0,0,0,0,0,0c-0.7-0.1-3-0.8-3.6-0.9l0,0
						c-1.1-0.2-1.5-0.9-2.6-1.1l0,0c-0.1,0.1-0.2,0.3-0.4,0.4c-0.1,0.2-0.3,0.3-0.5,0.4c0,0,0,0,0,0c0,0,0,0,0,0
						c0.3,0.2,0.5,0.3,0.8,0.5c0.7,0.5,1.5,1,2.3,1.4c0.1,0.1,0.2,0.1,0.3,0.1c0.1,0,0.2,0.1,0.3,0.1c0.4,0.1,0.8,0.2,1.1,0.3
						c2,0.6,3.9,1.7,4.9,3.6c0.5,0.9,0.6,2,0.2,3c0,0.1,0,0.2-0.1,0.2l0,0c-0.1,0.2-0.2,0.3-0.3,0.5l0,0c-0.1,0.1-0.1,0.2-0.2,0.2
						c-0.3,0.3-0.6,0.6-0.9,0.8c-0.1,0-0.1,0.1-0.2,0.1l0,0c-1.7,1.2-3.6,2.1-4.7,4c-0.1,0.2-0.2,0.3-0.2,0.5
						c-0.1,0.3-0.5,0.5-0.8,0.3c-0.1,0-0.1-0.1-0.2-0.1c-2-1.9-4.4-3.4-7-4.4c-1.1-0.4-2.2-0.7-3.4-0.9c-0.3-0.1-0.7,0-1,0.1
						c-0.3,0.2-0.5,0.5-0.6,0.8c-0.1,0.6,0.2,1.5,0.9,1.6c1.3,0.2,2.6,0.6,3.8,1.1c1.3,0.6,2.5,1.3,3.7,2.1c0.1,0.1,0.1,0.1,0.2,0.2
						c0,0,0.2,0.1,0.2,0.2c0,0-0.3-0.2-0.1-0.1l0.1,0.1c0.1,0.1,0.2,0.1,0.2,0.2c0.3,0.2,0.6,0.5,0.8,0.7c0.5,0.5,1.1,1,1.5,1.6
						c0.1,0.2,0.3,0.3,0.4,0.5c0.1,0.1,0.1,0.1,0.2,0.2l0.1,0.1c0.3,0.3,0.5,0.7,0.7,1l0.1,0.1c0.1,0.2,0.3,0.4,0.4,0.6
						c0.3,0.6,0.8,1.2,1.3,1.6c0.6,0.5,1.2,1,1.8,1.4c0.3,0.2,0.5,0.6,0.3,0.9c-0.1,0.1-0.2,0.2-0.3,0.3l-0.1,0
						c-0.8,0.4-1.5,0.9-2.2,1.4c-0.8,0.5-1.5,1.1-2.2,1.8c-0.3,0.4-0.6,0.8-0.9,1.2c-0.3,0.6-0.5,1.2-0.5,1.8
						c-0.1,1.2,0.3,2.4,1.2,3.2c0.3,0.3,0.8,0.5,1.3,0.5c0.5,0,0.9-0.2,1.3-0.5c0.2-0.2,0.3-0.5,0.4-0.7c0,0,0,0,0,0c0,0,0,0,0,0
						c0.3,0.4,0.6,0.7,1,1c0.4,0.2,0.9,0.3,1.4,0.2c1-0.3,1.5-1.3,1.3-2.3l-0.2-0.4l0,0c-0.1-0.2-0.3-0.4-0.5-0.5c0,0,0,0,0,0l0,0
						c0,0,0-0.1,0-0.1c0-0.1,0-0.1,0-0.2v0c0-0.1,0-0.2,0.1-0.3l0,0c0.1-0.2,0.2-0.4,0.3-0.5l0,0c0.6-0.7,1.3-1.3,2-1.9
						c0.5-0.4,1-0.7,1.5-1.1c0.6-0.4,1.2-0.8,1.8-1.2c0.7-0.6,1.2-1.5,1.2-2.4c-0.1-1-0.6-2-1.4-2.6c-0.7-0.5-1.4-0.8-2.2-1.1
						c-0.4-0.2-0.8-0.4-1.2-0.7l0,0c-0.3-0.2-0.5-0.5-0.8-0.8l0,0c-0.2-0.2-0.3-0.5-0.4-0.8l0,0c-0.1-0.2-0.2-0.5-0.2-0.8l0,0
						c0-0.3,0-0.5,0-0.8l0,0c0-0.2,0.1-0.4,0.2-0.6l0,0c0.1-0.2,0.2-0.4,0.4-0.6l0,0c0.4-0.5,0.9-0.9,1.4-1.3
						c0.6-0.4,1.2-0.9,1.7-1.3c0.6-0.5,1.1-1.1,1.6-1.7c0.6-0.9,1-1.9,1-2.9c0,0,0-0.1,0-0.1c0,0,0,0.1,0,0.1c0-0.1,0-0.2,0-0.2
						c0.1-0.3,0.2-0.5,0.3-0.8l0,0c0-0.1,0.1-0.1,0.1-0.2c0,0,0,0,0,0c0.1-0.1,0.1-0.1,0.2-0.2c0.2-0.2,0.3-0.3,0.5-0.5
						c0.1-0.1,0.4-0.3,0.1,0c0.1-0.1,0.2-0.2,0.3-0.2c0.7-0.5,1.5-0.9,2.2-1.4l0,0c0.1,0,0.1-0.1,0.2-0.1c0.3-0.2,0.5-0.3,0.8-0.4
						c1.2-0.5,2.6-0.7,3.9-0.5c0.2,0,0.4,0.1,0.7,0.1c0.7,0.2,1.4-0.2,1.6-0.9C75.6,52.9,75.2,52.2,74.5,52"/>
					<path id="Trazado_161" class="st3" d="M64.8,56.6c0,0,0.1-0.1,0.1-0.1C64.9,56.5,64.8,56.6,64.8,56.6"/>
					<path id="Trazado_162" class="st3" d="M67.6,51.2C67.6,51.2,67.6,51.2,67.6,51.2C67.6,51.2,67.6,51.2,67.6,51.2"/>
					
						<linearGradient id="Trazado_163_00000034062893971615478020000010034219516782927232_" gradientUnits="userSpaceOnUse" x1="1.6116" y1="110.6033" x2="1.821" y2="110.677" gradientTransform="matrix(64.9764 0 0 -34.3464 -33.8126 3853.3445)">
						<stop  offset="0" style="stop-color:#20C164"/>
						<stop  offset="1" style="stop-color:#7FE26B"/>
					</linearGradient>
					<path id="Trazado_163" style="fill:url(#Trazado_163_00000034062893971615478020000010034219516782927232_);" d="M90.2,52.2
						l-1.5-2.3c-0.3-0.6-0.7-1-1.2-1.4c-0.9-0.5-1.9-0.3-2.9-0.1c-1,0.3-1.9,0.6-2.9,0.3c-0.6-0.2-1.2-0.6-1.8-0.9
						c-0.8-0.3-1.7-0.3-2.5-0.1c-0.8,0.2-1.6,0.6-2.4,1c-0.8,0.3-1.5,0.8-2.2,1.4c-0.6,0.5-0.9,1.2-1,1.9c-0.4,0.8-0.5,1.8,0,2.7
						c0.4,0.8,1.3,1.3,2.2,1.4c0.7,0,1.4-0.3,2.1-0.3c1,0,1.9,0.6,2.8,1.1c1.7,0.9,3.7,1.5,5.5,0.9c1-0.3,1.9-0.9,3-1.2
						c0.8-0.2,1.6-0.3,2.3-0.7c0.7-0.4,1.4-1.1,1.3-1.9C90.8,53.2,90.5,52.7,90.2,52.2"/>
					
						<linearGradient id="Trazado_180_00000026858499869620336680000003265777772859934882_" gradientUnits="userSpaceOnUse" x1="2.5009" y1="109.866" x2="2.7104" y2="109.9397" gradientTransform="matrix(64.9764 0 0 -34.3464 -116.3226 3817.1865)">
						<stop  offset="0" style="stop-color:#20C164"/>
						<stop  offset="1" style="stop-color:#7FE26B"/>
					</linearGradient>
					<path id="Trazado_180" style="fill:url(#Trazado_180_00000026858499869620336680000003265777772859934882_);" d="M65.5,41.4
						l-1.5-2.3c-0.3-0.6-0.7-1-1.2-1.4c-0.9-0.5-1.9-0.3-2.9-0.1c-1,0.3-1.9,0.6-2.9,0.3c-0.6-0.2-1.2-0.6-1.8-0.9
						c-0.8-0.3-1.7-0.3-2.5-0.1c-0.8,0.2-1.6,0.6-2.4,1c-0.8,0.3-1.5,0.8-2.2,1.4c-0.6,0.5-0.9,1.2-1,1.9c-0.4,0.8-0.5,1.8,0,2.7
						c0.4,0.8,1.3,1.3,2.2,1.4c0.7,0,1.4-0.3,2.1-0.3c1,0,1.9,0.6,2.8,1.1c1.7,0.9,3.7,1.5,5.5,0.9c1-0.3,1.9-0.9,3-1.2
						c0.8-0.2,1.6-0.3,2.3-0.7c0.7-0.4,1.4-1.1,1.3-1.9C66,42.4,65.8,41.9,65.5,41.4"/>
					
						<linearGradient id="Trazado_181_00000182528844797679326550000012060615281767284392_" gradientUnits="userSpaceOnUse" x1="-0.8323" y1="130.2961" x2="-0.6228" y2="130.3698" gradientTransform="matrix(-63.0463 15.7192 8.3091 33.3261 -1079.5338 -4297.5356)">
						<stop  offset="0" style="stop-color:#20C164"/>
						<stop  offset="1" style="stop-color:#7FE26B"/>
					</linearGradient>
					<path id="Trazado_181" style="fill:url(#Trazado_181_00000182528844797679326550000012060615281767284392_);" d="M37.4,38.5
						l2,1.9c0.4,0.5,1,0.8,1.6,1.1c1,0.3,1.9-0.1,2.8-0.6c0.9-0.5,1.8-1,2.7-1c0.7,0,1.3,0.3,1.9,0.4c0.9,0.1,1.7-0.1,2.5-0.5
						c0.8-0.4,1.5-0.9,2.1-1.5c0.7-0.5,1.3-1.2,1.8-1.9c0.4-0.6,0.6-1.4,0.5-2.1c0.2-0.9,0-1.9-0.6-2.6c-0.6-0.7-1.6-1-2.5-0.8
						c-0.7,0.2-1.2,0.7-1.9,0.8c-1,0.3-2-0.1-3-0.4c-1.9-0.5-3.9-0.5-5.6,0.4c-0.9,0.5-1.7,1.3-2.6,1.9c-0.7,0.4-1.4,0.7-2.1,1.2
						c-0.6,0.5-1.1,1.4-0.8,2.2C36.6,37.7,37,38.2,37.4,38.5"/>
					
						<linearGradient id="Trazado_182_00000014613585318526611270000017667628757194028947_" gradientUnits="userSpaceOnUse" x1="-4.1741" y1="124.4616" x2="-3.9646" y2="124.5353" gradientTransform="matrix(-57.8939 -29.4993 -15.5932 30.6026 1746.9844 -3868.9644)">
						<stop  offset="0" style="stop-color:#20C164"/>
						<stop  offset="1" style="stop-color:#7FE26B"/>
					</linearGradient>
					<path id="Trazado_182" style="fill:url(#Trazado_182_00000014613585318526611270000017667628757194028947_);" d="M29.7,56.3
						L30,59c0,0.6,0.2,1.3,0.5,1.8C31,61.7,32,62,33,62.2s2,0.4,2.7,1.1c0.5,0.5,0.7,1.1,1.2,1.6c0.6,0.6,1.4,1.1,2.2,1.2
						c0.8,0.2,1.7,0.2,2.6,0.2c0.9,0.1,1.7,0,2.6-0.2c0.7-0.2,1.4-0.6,1.8-1.3c0.8-0.5,1.2-1.4,1.2-2.4c0-0.9-0.5-1.8-1.4-2.2
						c-0.6-0.3-1.4-0.3-2-0.6c-0.9-0.4-1.4-1.4-2-2.2c-1.1-1.6-2.6-3-4.5-3.3c-1-0.2-2.1-0.1-3.2-0.2c-0.8-0.1-1.6-0.4-2.4-0.4
						c-0.8,0-1.7,0.3-2.1,1.1C29.6,55.2,29.5,55.7,29.7,56.3"/>
					
						<linearGradient id="Trazado_164_00000072242031298478960970000013274296355281899690_" gradientUnits="userSpaceOnUse" x1="3.2373" y1="112.0675" x2="3.3661" y2="112.3168" gradientTransform="matrix(62.5548 0 0 -38.4616 -163.9852 4376.4814)">
						<stop  offset="0" style="stop-color:#20C164"/>
						<stop  offset="1" style="stop-color:#7FE26B"/>
					</linearGradient>
					<path id="Trazado_164" style="fill:url(#Trazado_164_00000072242031298478960970000013274296355281899690_);" d="M50.2,60.2
						l-1.9-2.3c-0.4-0.5-0.9-1.1-1.5-1.4c-0.9-0.4-1.9-0.1-2.7,0.4s-1.7,1-2.7,0.8c-0.6-0.1-1.2-0.5-1.9-0.7
						c-0.8-0.2-1.7-0.1-2.4,0.3c-0.8,0.4-1.5,0.9-2.1,1.5c-0.7,0.5-1.3,1.2-1.8,1.9c-0.4,0.7-0.6,1.5-0.6,2.3c-0.3,1-0.1,2.1,0.5,3
						c0.6,0.9,1.5,1.3,2.4,1.1c0.7-0.1,1.2-0.6,1.9-0.7c0.9-0.2,1.9,0.3,2.9,0.7c1.8,0.7,3.8,1,5.5,0.1c0.9-0.5,1.7-1.3,2.6-1.9
						c0.7-0.4,1.4-0.6,2-1.2c0.7-0.6,1-1.5,0.9-2.4C50.9,61.3,50.6,60.7,50.2,60.2"/>
					
						<linearGradient id="Trazado_165_00000103227784205844062760000013192033087508903830_" gradientUnits="userSpaceOnUse" x1="5.2736" y1="116.3584" x2="5.2736" y2="116.0588" gradientTransform="matrix(28.6638 0 0 -84.8524 -93.3185 9923.7578)">
						<stop  offset="0" style="stop-color:#895345"/>
						<stop  offset="1" style="stop-color:#FFA790"/>
					</linearGradient>
					<path id="Trazado_165" style="fill:url(#Trazado_165_00000103227784205844062760000013192033087508903830_);" d="M61.4,54.8
						c-0.4-0.7-0.9-1.3-1.6-1.8c-1.1-0.9-2.3-1.7-3.6-2.4c-0.4,0.2-0.8,0.3-1.2,0.3c1.2,0.8,2.4,1.5,3.5,2.3c0.6,0.4,1.2,1,1.7,1.6
						c0.5,0.9,0.9,1.9,0.9,2.9c0.1,1.1-0.2,2.1-0.8,3c-0.6,0.9-1.5,1.6-2.5,2.1C56,64,54,65.4,53.6,67.7c-0.2,1.3,0.2,2.5,0.8,3.7
						c0.6,1.2,1.3,2.5,1.1,3.9c-0.1,0.6,0.8,0.8,0.9,0.2c0.2-1.3-0.2-2.5-0.7-3.6c-0.5-1.1-1.2-2.1-1.2-3.3c0-1.2,0.5-2.3,1.3-3.1
						c0.8-0.9,1.9-1.5,2.9-2.1c1-0.6,1.8-1.3,2.5-2.3c0.6-0.9,1-2.1,0.9-3.2C62.1,56.8,61.9,55.7,61.4,54.8"/>
					
						<linearGradient id="Trazado_166_00000140006446528416117230000006803798652236658068_" gradientUnits="userSpaceOnUse" x1="1.4769" y1="115.2425" x2="1.5793" y2="115.4792" gradientTransform="matrix(140.4741 0 0 -78.0853 -153.8066 9045.5576)">
						<stop  offset="0" style="stop-color:#20C164"/>
						<stop  offset="0.5" style="stop-color:#7AE06B"/>
						<stop  offset="1" style="stop-color:#7FE26B"/>
					</linearGradient>
					<path id="Trazado_166" style="fill:url(#Trazado_166_00000140006446528416117230000006803798652236658068_);" d="M77.3,40.7
						c-0.3-0.8-1-1.4-1.8-1.5c-0.6,0-1.2,0.3-1.8,0.2c-0.9,0-1.6-0.7-2.3-1.2c-0.9-0.7-1.9-1.1-3-1.3c0.4-0.6,0.4-1.2,0.2-1.9
						c-0.3-0.7-1.1-1.1-1.8-1.5L63,31.6c-0.8-0.4-1.7-0.9-2.7-1c-1.7-0.1-3.4,0.8-4.8,1.7c-1.5,0.9-3,1.9-4.7,2.1
						c-1.1,0.1-2.3-0.1-3.4,0c-1.5,0.1-3,0.6-4.3,1.4c-1.3,0.8-2.5,1.7-3.6,2.7c-1.1,1-2.3,1.9-3.1,3.1c-0.6,1-1,2.1-0.8,3.1
						c-0.4,1.3,0.1,2.6,1.2,3.4c1,0.7,2.6,0.9,4,0.4l0,0c-0.4,0.6-0.7,1.2-0.9,1.9c-0.2,0.6-0.1,1.2,0.1,1.7c0.1,1.1,1,2,2.1,1.9
						c0.4,0,0.7-0.1,1-0.4c0.5-0.3,0.8-0.8,1.3-1.2c0.7-0.5,1.5-0.5,2.3-0.6c1.5-0.2,3.1-0.7,4.1-1.9c0.6-0.6,0.9-1.4,1.5-2.1
						c0.4-0.5,0.9-0.9,1.3-1.5c0.1-0.1,0.2-0.3,0.2-0.4c2-0.3,3.8-1,5.5-2c0.7-0.5,1.4-1,2.1-1.6c0.3,0.7,0.7,1.3,1,2
						c0.2,0.6,0.6,1.1,1,1.5c0.7,0.6,1.6,0.4,2.5,0.3c0.8-0.2,1.7-0.5,2.5-0.1c0.5,0.2,1,0.7,1.5,1c0.7,0.3,1.4,0.4,2.2,0.2
						c0.7-0.2,1.5-0.5,2.1-0.8c0.7-0.3,1.4-0.7,2-1.3c0.5-0.5,0.9-1.2,1-1.9C77.6,42.5,77.6,41.6,77.3,40.7"/>
					
						<linearGradient id="Trazado_167_00000030470123895890353400000000994590148835311744_" gradientUnits="userSpaceOnUse" x1="1.2336" y1="115.4181" x2="1.2336" y2="115.1185" gradientTransform="matrix(181.954 0 0 -55.5387 -165.1947 6483.9551)">
						<stop  offset="0" style="stop-color:#80E36B"/>
						<stop  offset="1" style="stop-color:#49AC56"/>
					</linearGradient>
					<path id="Trazado_167" style="fill:url(#Trazado_167_00000030470123895890353400000000994590148835311744_);" d="M32.3,86.1
						C32.4,86.2,32.4,86.2,32.3,86.1c0.7,0.2,1.3,0.5,1.9,0.6c2.6,0.7,5.2,1.1,7.9,1.5c0.5,0.1,0.9,0.1,1.4,0.2
						c0.6,0.1,1.2,0.2,1.8,0.2c1.2,0.1,2.4,0.3,3.7,0.4c2.5,0.3,5,0.5,7.5,0.7c4.9,0.5,9.8,0.7,14.7,0.5c1.3-0.1,2.5-0.2,3.8-0.3
						c0.4,0,0.7-0.1,1.1-0.1c0,0,0.1,0,0.2,0c0.1,0,0.3,0,0.3,0c0.4-0.1,0.7-0.1,1.1-0.2c2.3-0.4,4.7-1,6.9-1.7
						c0.3-0.1,0.6-0.2,1-0.4l0,0c0.3-0.2,0.7-0.3,1.1-0.5c-1-4.3-6.9-7.9-14.6-8.8c-3.4-2.7-9.2-4.5-15.6-4.5c-9,0-16.6,3.4-18.5,8
						c-2.5,1.1-4.5,2.5-5.7,4.2C32.1,86,32.2,86.1,32.3,86.1"/>
					
						<linearGradient id="Trazado_168_00000056426504165933777240000004798749481258368165_" gradientUnits="userSpaceOnUse" x1="1.1574" y1="115.865" x2="1.1574" y2="115.5653" gradientTransform="matrix(200.997 0 0 -56.1 -172.7728 6583.4429)">
						<stop  offset="0" style="stop-color:#3F3F3F"/>
						<stop  offset="1" style="stop-color:#F1AFAF"/>
					</linearGradient>
					<path id="Trazado_168" style="fill:url(#Trazado_168_00000056426504165933777240000004798749481258368165_);" d="M89.9,83.4
						c-1.1,1.8-14.1,3.2-30,3.2s-28.9-1.4-30-3.2c0,0,0,0.1-0.1,0.1h0v2.1c0,8.1,11.8,14.6,26.4,14.6h7.3c14.6,0,26.4-6.6,26.4-14.6
						v-2.1h0C89.9,83.5,89.9,83.5,89.9,83.4"/>
					
						<linearGradient id="Trazado_169_00000023279989818467439100000010390199504752427655_" gradientUnits="userSpaceOnUse" x1="2.2159" y1="113.4069" x2="2.0295" y2="113.2571" gradientTransform="matrix(70.6768 0 0 -39.283 -83.8415 4532.5317)">
						<stop  offset="0" style="stop-color:#F1F1F1"/>
						<stop  offset="1" style="stop-color:#9E9E9E"/>
					</linearGradient>
					<path id="Trazado_169" style="fill:url(#Trazado_169_00000023279989818467439100000010390199504752427655_);" d="M76.9,78.5
						c-0.4-0.6-0.9-1.3-1.5-1.7c-0.6-0.3-1.2-0.5-1.9-0.4c-0.1-0.2-0.3-0.4-0.5-0.6l-1.4-1.4c-0.3-0.3-0.6-0.6-1.1-0.8
						c-0.7-0.2-1.4,0-2,0.3s-1.3,0.7-1.9,0.6c-0.5,0-0.9-0.3-1.3-0.4c-0.6-0.1-1.2,0-1.8,0.3c-0.5,0.3-1,0.6-1.5,1
						c-0.5,0.3-1,0.8-1.3,1.3c-0.1,0.1-0.1,0.2-0.2,0.3c-0.9,0.4-1.7,0.9-2.5,1.6c-0.7,0.6-1.1,1.4-1.2,2.3
						c-0.3,0.5-0.4,1.1-0.4,1.7c0.4,0.1,0.9,0.3,1.3,0.4c1.8,0.6,3.7,1.3,5.5,1.7c0.5,0.1,0.9,0.2,1.4,0.3c0.1,0,0.2,0,0.3,0.1
						l0.1,0c0.8,0.1,1.6,0.2,2.5,0.2c0.8,0,1.6,0,2.3-0.1c0.3,0,0.5,0,0.8-0.1c0.2,0,0.3-0.1,0.5-0.1c0.8-0.2,1.7-0.4,2.5-0.7
						c0,0,0.1,0,0.1,0c0.3-0.2,0.6-0.3,1-0.5c0.1-0.1,0.4-0.2,0.5-0.4c0.1-0.1,0.2-0.2,0.2-0.2c0.1-0.1,0.4-0.5,0.6-0.7
						c0-0.1,0.1-0.1,0.1-0.2c0.4-0.6,0.8-1.3,1.1-1.9c0.1-0.1,0.1-0.3,0.2-0.4c0.1-0.2,0.1-0.4,0.2-0.6L76.9,78.5"/>
				</g>
			</g>
		</g>
	</g>
</g>
</svg>
