<?xml version="1.0" encoding="utf-8"?>
<!-- Generator: Adobe Illustrator 26.3.1, SVG Export Plug-In . SVG Version: 6.00 Build 0)  -->
<svg version="1.1" id="Capa_1" xmlns="http://www.w3.org/2000/svg" xmlns:xlink="http://www.w3.org/1999/xlink" x="0px" y="0px"
	 viewBox="0 0 120 120" style="enable-background:new 0 0 120 120;" xml:space="preserve">
<style type="text/css">
	.st0{fill:url(#Trazado_120_00000047761754977810360170000003955496379602207656_);}
	.st1{clip-path:url(#SVGID_00000145033817405897724020000009891366775407476643_);}
	.st2{fill:url(#Rect치ngulo_90_00000072255155299227761000000003392103649571070601_);}
	.st3{clip-path:url(#SVGID_00000091006413335982515970000012580115397035696560_);}
	.st4{fill:url(#Trazado_184_00000127018179847983465240000014886572611440563857_);}
	.st5{fill:url(#Trazado_185_00000104694204473661844880000007899603045319199637_);}
	.st6{fill:#D3DAE0;}
	.st7{fill:url(#Trazado_187_00000167394692524597482570000006165124754890120329_);}
	.st8{fill:#FFE655;}
	.st9{fill:url(#Trazado_189_00000080887778720902836380000006085199575570340749_);}
	.st10{fill:url(#Trazado_195_00000027589532101385430840000003093906763205482664_);}
	.st11{fill:url(#Trazado_196_00000105385493294889944080000007018115479876801700_);}
	.st12{fill:url(#Trazado_197_00000171690553817973093700000007593914543929713810_);}
	.st13{fill:url(#Trazado_198_00000044138458911287426470000010294206655354378686_);}
	.st14{fill:url(#Trazado_199_00000086675321225219336370000003108258885573123489_);}
</style>
<g id="Grupo_141" transform="translate(-309.276 -498.445)">
	
		<linearGradient id="Trazado_120_00000026859691984662512860000006236507348887101619_" gradientUnits="userSpaceOnUse" x1="309.3818" y1="619.3803" x2="309.3818" y2="619.08" gradientTransform="matrix(-331.709 0 0 234.553 102992.9844 -144686.0781)">
		<stop  offset="0" style="stop-color:#BBD1BB"/>
		<stop  offset="1" style="stop-color:#EFFAEF"/>
	</linearGradient>
	<path id="Trazado_120" style="fill:url(#Trazado_120_00000026859691984662512860000006236507348887101619_);" d="M318.4,570.8
		c0-27.5,22.3-49.8,49.8-49.8s49.8,22.3,49.8,49.8C418.1,598.3,318.4,598.3,318.4,570.8z"/>
	<g id="Grupo_139" transform="translate(360 596.685)">
		<g id="Grupo_136" transform="translate(0 -1.285)">
			<g>
				<defs>
					<path id="SVGID_1_" d="M-24.2-34.6c0,3.9,14.1,7.1,31.5,7.1s31.5-3.2,31.5-7.1s-14.1-7.1-31.5-7.1S-24.2-38.5-24.2-34.6"/>
				</defs>
				<clipPath id="SVGID_00000183940906801662408650000017250516067542173845_">
					<use xlink:href="#SVGID_1_"  style="overflow:visible;"/>
				</clipPath>
				
					<g id="Grupo_135" transform="translate(7 12.133)" style="clip-path:url(#SVGID_00000183940906801662408650000017250516067542173845_);">
					
						<linearGradient id="Rect치ngulo_90_00000176021611319887523690000011776825298373892502_" gradientUnits="userSpaceOnUse" x1="-56.7344" y1="4.2404" x2="-56.4572" y2="4.2545" gradientTransform="matrix(210 0 0 -47.152 11884.4023 153.5782)">
						<stop  offset="0" style="stop-color:#B98E81"/>
						<stop  offset="1" style="stop-color:#356A77"/>
					</linearGradient>
					
						<rect id="Rect치ngulo_90" x="-31.2" y="-53.8" style="fill:url(#Rect치ngulo_90_00000176021611319887523690000011776825298373892502_);" width="63.1" height="14.2"/>
				</g>
			</g>
		</g>
		<g id="Grupo_138">
			<g>
				<defs>
					<rect id="SVGID_00000008130554692964975240000015685022535484062133_" x="-26.3" y="-46.2" width="86.5" height="53.6"/>
				</defs>
				<clipPath id="SVGID_00000054228765999796813340000009833122347846440342_">
					<use xlink:href="#SVGID_00000008130554692964975240000015685022535484062133_"  style="overflow:visible;"/>
				</clipPath>
				<g id="Grupo_137" style="clip-path:url(#SVGID_00000054228765999796813340000009833122347846440342_);">
					
						<linearGradient id="Trazado_184_00000128478960867078528160000014470211377186876321_" gradientUnits="userSpaceOnUse" x1="-49.7477" y1="18.8954" x2="-49.4474" y2="18.9117" gradientTransform="matrix(215.4125 0 0 -105.3221 10692.9346 1972.6622)">
						<stop  offset="0" style="stop-color:#FDD6CB"/>
						<stop  offset="1" style="stop-color:#EAEAEA"/>
					</linearGradient>
					<path id="Trazado_184" style="fill:url(#Trazado_184_00000128478960867078528160000014470211377186876321_);" d="M7.8-2
						C3.5-1.9-0.8-2.6-4.8-4.1c-1.9-0.7-3.8-1.6-5.6-2.6c-1.7-1-3.4-2.2-4.9-3.5c-1.5-1.3-2.8-2.7-4-4.3c-1.2-1.5-2.2-3.2-3.1-4.9
						c-1.7-3.6-2.7-7.4-2.8-11.4c0-0.9,0-1.9,0.1-2.8c11.3,1.8,24.2,2.6,37.5,2.3c9-0.2,18-0.9,27-2.1c0,0.4,0,0.9,0.1,1.3
						c0.1,4-0.7,7.9-2.3,11.5c-0.8,1.8-1.7,3.5-2.9,5.1c-1.1,1.6-2.4,3.1-3.9,4.4c-1.5,1.4-3,2.6-4.7,3.7c-1.7,1.1-3.5,2.1-5.4,2.8
						C16.4-3,12.1-2.1,7.8-2"/>
					
						<linearGradient id="Trazado_185_00000004533044961359877210000010185254460148306868_" gradientUnits="userSpaceOnUse" x1="-49.6674" y1="16.2106" x2="-49.4205" y2="16.1307" gradientTransform="matrix(193.066 0 0 -58.0265 9575.042 901.6855)">
						<stop  offset="0" style="stop-color:#FFFAFA"/>
						<stop  offset="1" style="stop-color:#E6E6E6"/>
					</linearGradient>
					<path id="Trazado_185" style="fill:url(#Trazado_185_00000004533044961359877210000010185254460148306868_);" d="M29.7-36.3
						c-0.2,0-0.3,0-0.5,0c-0.9-2.2-3.4-3.3-5.6-2.4c-0.2,0.1-0.4,0.2-0.6,0.3c-0.6-0.9-1.5-1.5-2.6-1.7c-0.8-1.7-2.6-2.7-4.5-2.5
						c-0.7-0.8-1.6-1.3-2.6-1.5c-1.2-2.1-3.9-2.8-5.9-1.6c-1.8,1.1-2.6,3.3-1.9,5.3c-1.7-0.8-3.7-0.5-5,0.9
						c-1.2-2.1-3.8-2.8-5.9-1.7c-1.1,0.6-1.9,1.7-2.1,2.9c-2.3-0.6-4.7,0.7-5.3,3c0,0.1-0.1,0.3-0.1,0.4c-0.1,0-0.1,0-0.2,0
						c-2.4,0-7.2-0.2-7.2,2.2s6,2.2,8.4,2.2c2.2,0,2.7,2.8,3.1,0.7c0.1,0-0.6-0.3-0.5-0.3c0.6,0,1.9,0.2,2.4,0
						c0.8,1.3,3.3,0.3,3.3,0.3s2.8,1.3,3.6,0.4c1.6,0.8,3.6,0.5,4.9-0.7c1.3,1.2,3.1,1.5,4.7,0.9c1.3,0.2,2.7,0.3,4,0.3
						c1.6,0,3.1-0.2,4.7-0.5c0.8,1,3.1,0,3.1,0s3.8,0.5,4.4-1.1l0,0c0.6,1.6,1.7-0.1,3.6-0.1c2.4,0,8.3-1.1,8.3-3.5
						S32.1-36.3,29.7-36.3"/>
					<path id="Trazado_186" class="st6" d="M14.2-37c0.4,0.4,0.8,0.8,1,1.3c0.2,0.4-0.3,0.9-0.7,0.7c-0.5-0.3-0.9-0.7-1.3-1
						c-0.4-0.4-0.8-0.8-1-1.3c-0.2-0.4,0.3-0.9,0.7-0.7C13.3-37.7,13.8-37.4,14.2-37"/>
					
						<linearGradient id="Trazado_187_00000149367524036571844270000009556471872218825912_" gradientUnits="userSpaceOnUse" x1="-48.0927" y1="13.5569" x2="-48.0062" y2="13.2434" gradientTransform="matrix(46.8967 0 0 -36.937 2273.1152 460.4082)">
						<stop  offset="0" style="stop-color:#FFFFFF"/>
						<stop  offset="1" style="stop-color:#FFFFFF"/>
					</linearGradient>
					<path id="Trazado_187" style="fill:url(#Trazado_187_00000149367524036571844270000009556471872218825912_);" d="M23.6-30.2
						c1,0,2,0,3,0c1.7-4.4,0.7-8.9-2.4-10.3c-3.3-1.5-7.6,1-9.7,5.6c-0.7,1.6-1.1,3.3-1.1,5.1c0.2,0,0.5,0,0.7,0
						C17.2-30.2,20.4-30.1,23.6-30.2"/>
					<path id="Trazado_188" class="st8" d="M23.4-30.2c0.1-0.2,0.3-0.4,0.4-0.7c1.2-2.6,0.7-5.4-1.2-6.2c-1.8-0.8-4.3,0.6-5.5,3.2
						c-0.6,1.2-0.8,2.6-0.5,4C18.8-30.1,21.1-30.2,23.4-30.2"/>
					
						<linearGradient id="Trazado_189_00000042728509050805221570000015971652621153759908_" gradientUnits="userSpaceOnUse" x1="-49.7755" y1="15.4481" x2="-49.507" y2="15.4529" gradientTransform="matrix(224 0 0 -49.961 11124.5381 736.2459)">
						<stop  offset="0" style="stop-color:#FDD6CB"/>
						<stop  offset="1" style="stop-color:#6DBFD3"/>
					</linearGradient>
					<path id="Trazado_189" style="fill:url(#Trazado_189_00000042728509050805221570000015971652621153759908_);" d="M15.5-43
						c0.1,0.1,0.2,0.3,0.3,0.4c0.2-0.1,0.5-0.1,0.7-0.1c0.2,0,0.3,0,0.5,0.1c0.1,0,0.2,0,0.2,0c0.3,0,0.6,0.1,0.8,0.2
						c0.5,0.2,1,0.4,1.3,0.8c11.2,0.9,19.1,3,19.1,5.4c0,3.2-13.9,5.9-31,5.9s-31-2.6-31-5.9c0-3.1,12.6-5.6,28.7-5.8
						c0-0.4,0.1-0.8,0.3-1.2c-17.7,0.2-31.8,3.5-31.8,7.5c0,4.1,15.1,7.5,33.6,7.5s33.6-3.4,33.6-7.5C40.9-39.2,30.1-42.2,15.5-43"
						/>
					<path id="Trazado_190" class="st6" d="M2.2-35.1c0.3,0.5,0.6,0.9,0.8,1.5c0.2,0.4-0.4,0.9-0.8,0.6c-0.9-0.7-1.6-1.7-2-2.7
						c-0.2-0.4,0.4-0.9,0.8-0.6C1.5-36,1.9-35.6,2.2-35.1"/>
					<path id="Trazado_191" class="st6" d="M-9.3-35.2c0.4-0.4,0.9-0.7,1.4-0.9c0.4-0.2,0.9,0.4,0.6,0.8c-0.7,0.9-1.6,1.6-2.6,2.1
						c-0.4,0.2-0.9-0.4-0.6-0.8C-10.1-34.5-9.7-34.9-9.3-35.2"/>
					<path id="Trazado_192" class="st6" d="M5.3-32.6c-0.2,0.5-0.5,1-0.9,1.5c-0.3,0.4-1,0.1-0.9-0.4c0.2-1.1,0.7-2.2,1.4-3.1
						c0.3-0.4,1-0.1,0.9,0.4C5.7-33.7,5.5-33.1,5.3-32.6"/>
					<path id="Trazado_193" class="st6" d="M11.3-33.5c0.2,0.5,0.4,1.1,0.5,1.6c0.1,0.5-0.6,0.8-0.9,0.4c-0.7-0.9-1.2-2-1.4-3.1
						c-0.1-0.5,0.6-0.8,0.9-0.4C10.8-34.5,11.1-34,11.3-33.5"/>
					<path id="Trazado_194" class="st6" d="M10.1-40.6c-0.3,0.5-0.7,0.9-1.1,1.3c-0.3,0.3-1-0.1-0.8-0.5c0.4-1.1,1-2,1.8-2.8
						c0.3-0.3,1,0.1,0.8,0.5C10.6-41.6,10.4-41.1,10.1-40.6"/>
					
						<linearGradient id="Trazado_195_00000096756838609819739300000003682733685522467001_" gradientUnits="userSpaceOnUse" x1="-36.2355" y1="-3.8373" x2="-36.2355" y2="-4.1376" gradientTransform="matrix(11.3905 0 0 -11.3913 408.712 -79.97)">
						<stop  offset="0" style="stop-color:#BBDFB5"/>
						<stop  offset="1" style="stop-color:#64BE56"/>
					</linearGradient>
					<path id="Trazado_195" style="fill:url(#Trazado_195_00000096756838609819739300000003682733685522467001_);" d="M-4.7-32.9
						l-0.9-0.9c-0.1-0.1-0.1-0.3,0-0.5l1.8-1.8c0.1-0.1,0.3-0.1,0.5,0c0,0,0,0,0,0l0.9,0.9c0.1,0.1,0.1,0.3,0,0.5l-1.8,1.8
						C-4.4-32.8-4.6-32.8-4.7-32.9C-4.7-32.9-4.7-32.9-4.7-32.9"/>
					
						<linearGradient id="Trazado_196_00000163792369035261111360000015083749373443051927_" gradientUnits="userSpaceOnUse" x1="-37.5542" y1="-3.1928" x2="-37.5542" y2="-3.4932" gradientTransform="matrix(10.5329 0 0 -11.8319 402.6368 -75.6033)">
						<stop  offset="0" style="stop-color:#BBDFB5"/>
						<stop  offset="1" style="stop-color:#64BE56"/>
					</linearGradient>
					<path id="Trazado_196" style="fill:url(#Trazado_196_00000163792369035261111360000015083749373443051927_);" d="M8.5-35
						l-1.1,0.7c-0.1,0.1-0.3,0.1-0.4-0.1c0,0,0,0,0,0l-1.4-2.2c-0.1-0.1-0.1-0.3,0.1-0.4c0,0,0,0,0,0l1.1-0.7
						c0.1-0.1,0.3-0.1,0.4,0.1c0,0,0,0,0,0l1.4,2.2C8.7-35.3,8.7-35.1,8.5-35C8.5-35,8.5-35,8.5-35"/>
					
						<linearGradient id="Trazado_197_00000105417751034577210660000015973539678124229262_" gradientUnits="userSpaceOnUse" x1="-34.8998" y1="-5.2006" x2="-34.8998" y2="-5.5009" gradientTransform="matrix(7.704 0 0 -11.3861 282.5583 -102.0795)">
						<stop  offset="0" style="stop-color:#BBDFB5"/>
						<stop  offset="1" style="stop-color:#64BE56"/>
					</linearGradient>
					<path id="Trazado_197" style="fill:url(#Trazado_197_00000105417751034577210660000015973539678124229262_);" d="M14.6-39.6
						l-1.3,0.2c-0.2,0-0.3-0.1-0.4-0.3c0,0,0,0,0,0l-0.4-2.6c0-0.2,0.1-0.3,0.3-0.4c0,0,0,0,0,0l1.3-0.2c0.2,0,0.3,0.1,0.4,0.3
						l0.4,2.6C14.9-39.8,14.7-39.7,14.6-39.6"/>
					
						<linearGradient id="Trazado_198_00000026859358763864343820000008556217915491456904_" gradientUnits="userSpaceOnUse" x1="-49.8052" y1="19.6293" x2="-49.791" y2="19.5711" gradientTransform="matrix(255.7886 0 0 -148.9133 12758.0166 2908.8145)">
						<stop  offset="0" style="stop-color:#F4C3A4"/>
						<stop  offset="1" style="stop-color:#7A6252"/>
					</linearGradient>
					<path id="Trazado_198" style="fill:url(#Trazado_198_00000026859358763864343820000008556217915491456904_);" d="M-19.9,6.9
						L-19.9,6.9c0.3,0.4,0.8,0.6,1.3,0.4L55-31.5c1.7-0.9,2.3-3,1.4-4.6c-0.1-0.2-0.2-0.4-0.4-0.5L55.8-37c-0.3-0.4-0.8-0.5-1.2-0.2
						L-19.5,5.5C-20,5.8-20.2,6.4-19.9,6.9C-19.9,6.9-19.9,6.9-19.9,6.9"/>
					
						<linearGradient id="Trazado_199_00000165922165916154002060000007149368523668016280_" gradientUnits="userSpaceOnUse" x1="-49.8409" y1="18.4816" x2="-49.8307" y2="18.3747" gradientTransform="matrix(280.8727 0 0 -87.6852 14016.3418 1603.0286)">
						<stop  offset="0" style="stop-color:#F7C5A6"/>
						<stop  offset="1" style="stop-color:#7C6353"/>
					</linearGradient>
					<path id="Trazado_199" style="fill:url(#Trazado_199_00000165922165916154002060000007149368523668016280_);" d="M-24.2-3.7
						L-24.2-3.7C-24-3.3-23.5-3-23-3.1l80.6-20.6c1.8-0.5,2.9-2.3,2.5-4.2c-0.1-0.2-0.1-0.4-0.2-0.6l-0.2-0.3
						c-0.2-0.4-0.7-0.7-1.2-0.5L-23.5-5C-24.1-4.8-24.3-4.3-24.2-3.7C-24.2-3.8-24.2-3.7-24.2-3.7"/>
				</g>
			</g>
		</g>
	</g>
</g>
</svg>
