<?xml version="1.0" encoding="utf-8"?>
<!-- Generator: Adobe Illustrator 26.2.1, SVG Export Plug-In . SVG Version: 6.00 Build 0)  -->
<svg version="1.1" id="Capa_1" xmlns="http://www.w3.org/2000/svg" xmlns:xlink="http://www.w3.org/1999/xlink" x="0px" y="0px"
	 viewBox="0 0 120 120" style="enable-background:new 0 0 120 120;" xml:space="preserve">
<style type="text/css">
	.st0{clip-path:url(#SVGID_00000026842544325922329050000016373024611247040902_);}
	.st1{fill:url(#Trazado_88_00000052813579450557822630000004920467006921600414_);}
	.st2{fill:#F0F2F2;}
	.st3{fill:#D6D8D8;}
	.st4{fill:#C5CDCD;}
	.st5{fill:#FF3636;}
	.st6{fill:#CD2630;}
	.st7{fill:url(#Trazado_94_00000005954977257856540430000015994846252489930164_);}
	.st8{fill:url(#Trazado_95_00000116222527423639724090000004216329093565455762_);}
	.st9{fill:#FFE655;}
	.st10{fill:#FFFFFF;}
	.st11{fill:url(#Trazado_99_00000103979495544776901900000009770105325858295437_);}
	.st12{fill:url(#Trazado_100_00000116214830619853486640000005954649430554818188_);}
	.st13{fill:url(#Trazado_101_00000088114312927578195000000009563923082151819453_);}
	.st14{fill:url(#Trazado_102_00000037668000581203239660000002198357757355497382_);}
</style>
<g id="Grupo_110" transform="translate(0 0)">
	<g>
		<defs>
			<rect id="SVGID_1_" x="1.5" y="23" width="116.4" height="75.7"/>
		</defs>
		<clipPath id="SVGID_00000018227014395752086220000015105402486749688965_">
			<use xlink:href="#SVGID_1_"  style="overflow:visible;"/>
		</clipPath>
		
			<g id="Grupo_109" transform="translate(0 0)" style="clip-path:url(#SVGID_00000018227014395752086220000015105402486749688965_);">
			
				<linearGradient id="Trazado_88_00000111186600749360208040000004747196730968012681_" gradientUnits="userSpaceOnUse" x1="3.3237" y1="114.774" x2="3.3237" y2="113.8673" gradientTransform="matrix(127.3188 0 0 -61.1733 -363.4354 7064.3179)">
				<stop  offset="0" style="stop-color:#FFFFFF"/>
				<stop  offset="1" style="stop-color:#D7E8E7"/>
			</linearGradient>
			<path id="Trazado_88" style="fill:url(#Trazado_88_00000111186600749360208040000004747196730968012681_);" d="M59.7,98.7
				c-7.7,0-15.3-1.3-22.5-4c-3.4-1.3-6.7-2.8-9.8-4.7c-3-1.8-5.9-3.9-8.5-6.2c-2.6-2.3-4.9-4.8-7-7.5c-2.1-2.7-3.8-5.5-5.3-8.6
				c-3.7-7.6-5.2-16.1-4.3-24.6c20,3.4,43.1,5.3,66.9,5.3c16.1,0,32.2-0.8,48.2-2.6c0,0.7,0.1,1.5,0.1,2.2c0,6.8-1.5,13.5-4.5,19.7
				c-1.5,3-3.3,5.9-5.3,8.6c-2.1,2.7-4.5,5.2-7,7.5c-2.7,2.3-5.5,4.4-8.5,6.2c-3.1,1.8-6.4,3.4-9.8,4.7C75,97.4,67.4,98.7,59.7,98.7
				"/>
			<path id="Trazado_89" class="st2" d="M59.7,32.4c32.1,0,58.2,5.5,58.2,12.3S91.9,57,59.7,57S1.5,51.5,1.5,44.7
				S27.6,32.4,59.7,32.4"/>
			<path id="Trazado_90" class="st3" d="M59.7,36.7c28.9,0,52.3,4.3,52.3,9.7s-23.4,9.7-52.3,9.7S7.5,51.7,7.5,46.4
				S30.9,36.7,59.7,36.7"/>
			<path id="Trazado_91" class="st4" d="M59.7,37c28.7,0,52,4.2,52,9.4s-23.3,9.4-52,9.4s-52-4.2-52-9.4S31,37,59.7,37"/>
			<path id="Trazado_92" class="st5" d="M111.6,65.5c-8.7,3.7-27.6,6.8-51.9,6.8c-24.2,0-43-3-51.8-6.7c0.5,1,1.1,2,1.7,3
				c11.2,3.9,31,6,50.1,6c19.3,0,39.5-2.1,50.6-6.2C110.8,67.4,111.3,66.5,111.6,65.5"/>
			<path id="Trazado_93" class="st6" d="M111.8,65.1c-3.7,1.5-7.5,2.6-11.4,3.4c-10.8,2.2-25.3,3.5-40.7,3.5s-29.8-1.2-40.7-3.5
				c-3.9-0.7-7.7-1.8-11.3-3.3c0.5,1.1,1,2.1,1.7,3c11,3.9,31.1,6,50.3,6c19.5,0,39.9-2.1,50.8-6.2C111,67,111.4,66,111.8,65.1"/>
			
				<linearGradient id="Trazado_94_00000148643338533287878130000006155294522908371640_" gradientUnits="userSpaceOnUse" x1="6.6511" y1="106.1756" x2="6.8415" y2="105.6615" gradientTransform="matrix(44.4766 0 0 -25.8918 -276.4111 2778.6458)">
				<stop  offset="0" style="stop-color:#4C4C4C"/>
				<stop  offset="1" style="stop-color:#0F0F0F"/>
			</linearGradient>
			<path id="Trazado_94" style="fill:url(#Trazado_94_00000148643338533287878130000006155294522908371640_);" d="M46,35
				c1.5,5.9-6.3,12.9-17.4,15.6c-11,2.7-21.2,0.1-22.6-5.7s6.3-12.9,17.4-15.6S44.5,29.1,46,35"/>
			
				<linearGradient id="Trazado_95_00000167382420899666682270000007477085542139869102_" gradientUnits="userSpaceOnUse" x1="3.6201" y1="103.3736" x2="3.6201" y2="102.467" gradientTransform="matrix(109.6258 0 0 -21.64 -339.3146 2274.6809)">
				<stop  offset="0" style="stop-color:#FCF4A9"/>
				<stop  offset="1" style="stop-color:#FFF060"/>
			</linearGradient>
			<path id="Trazado_95" style="fill:url(#Trazado_95_00000167382420899666682270000007477085542139869102_);" d="M8,48.3
				c0.1-1.7,1.9-3,3.7-3.1c1.8,0,3.5,0.5,5,1.4c1.5,0.9,3.2,1.5,4.9,1.8c3.9,0.4,7.3-2.6,10.1-5.3c2.8-2.8,6.2-5.8,10.1-5.3
				c4.3,0.5,7.5,5.1,11.8,5.1c2.9,0,5.3-2.2,8.1-3.2c2.8-1,5.9-0.8,8.6,0.6c1.5,0.8,2.9,2,4.6,2.3c1.4,0.1,2.9-0.2,4.2-0.7
				c8-2.1,16.5,0.3,24.5,2.8c1.7,0.5,3.9,1.6,3.7,3.4c-0.1,1.5-1.8,2.4-3.3,2.9c-21.9,7.3-45.6,7.4-68.7,5.3
				c-9.6-0.8-19.7-2.2-27.4-8.1"/>
			<path id="Trazado_96" class="st9" d="M18.5,48.7c3.3,3.5,8.1,0.9,10.6-2.1c1.7-2,3.1-4.5,5.6-5.6c2.7-1,5.5-1.4,8.3-0.9
				c3,0.4,4.9,2,6.8,4.2c1.4,1.8,3.3,3.3,5.5,4.2c4.5,1.8,9.7,0.5,12.9-3.1c0.9-1-0.6-2.6-1.6-1.6c-3.4,3.9-9.4,4.3-13.4,0.9
				c0,0-0.1,0-0.1-0.1c-1.7-1.5-2.9-3.5-4.7-4.8c-1.6-1.2-3.6-1.8-5.6-2c-4-0.5-8.6,0-11.7,2.8c-2.4,2.2-7,10.8-11.1,6.4
				C19.1,46.1,17.6,47.6,18.5,48.7"/>
			<path id="Trazado_97" class="st9" d="M36,53.2c0.6-2.1,2.7-3.4,4.9-3c2.5,0.2,4.4,2,5.8,4c0.8,1.2,2.7,0.1,1.9-1.1
				c-1.8-2.7-4.5-4.9-7.9-5.1c-3.1-0.2-5.9,1.7-6.8,4.7c-0.1,0.6,0.2,1.2,0.8,1.3C35.2,54.1,35.8,53.8,36,53.2"/>
			<path id="Trazado_98" class="st10" d="M89.3,48.7C84.5,59,74.8,64.6,67.4,61.2c-7.3-3.4-9.5-14.4-4.8-24.7S77.1,20.6,84.5,24
				C91.8,27.3,94,38.4,89.3,48.7"/>
			
				<linearGradient id="Trazado_99_00000179637355268251512110000013515054881899492782_" gradientUnits="userSpaceOnUse" x1="12.9821" y1="104.8137" x2="13.4935" y2="105.0104" gradientTransform="matrix(19.6935 0 0 -24.4207 -183.9665 2603.8174)">
				<stop  offset="0" style="stop-color:#FFE655"/>
				<stop  offset="1" style="stop-color:#FFF3B0"/>
			</linearGradient>
			<path id="Trazado_99" style="fill:url(#Trazado_99_00000179637355268251512110000013515054881899492782_);" d="M83.6,45.5
				c-2.7,5.8-8.2,9-12.3,7.1s-5.3-8.2-2.7-14s8.2-9,12.3-7.1C85.1,33.5,86.3,39.7,83.6,45.5"/>
			
				<linearGradient id="Trazado_100_00000102532149722939047510000012151454965855695774_" gradientUnits="userSpaceOnUse" x1="36.342" y1="74.5702" x2="36.342" y2="73.6636" gradientTransform="matrix(6.7265 0 0 -8.2045 -205.8096 654.3476)">
				<stop  offset="0" style="stop-color:#AFFEA3"/>
				<stop  offset="1" style="stop-color:#2E472A"/>
			</linearGradient>
			<path id="Trazado_100" style="fill:url(#Trazado_100_00000102532149722939047510000012151454965855695774_);" d="M40.8,49.3
				l-1.1,0.5c-0.8,0.4-1.7,0.1-2.1-0.7l-1.8-3.7c-0.4-0.8-0.1-1.7,0.7-2.1l1.1-0.5c0.8-0.4,1.7-0.1,2.1,0.7l1.8,3.7
				C41.9,47.9,41.6,48.9,40.8,49.3"/>
			
				<linearGradient id="Trazado_101_00000003806478384446296090000002215564411988465558_" gradientUnits="userSpaceOnUse" x1="31.7187" y1="71.5549" x2="31.7187" y2="70.6483" gradientTransform="matrix(7.6909 0 0 -7.6915 -186.2785 598.9895)">
				<stop  offset="0" style="stop-color:#AFFEA3"/>
				<stop  offset="1" style="stop-color:#2E472A"/>
			</linearGradient>
			<path id="Trazado_101" style="fill:url(#Trazado_101_00000003806478384446296090000002215564411988465558_);" d="M55.5,55.1
				l-0.9-0.9c-0.6-0.6-0.6-1.6,0-2.2l2.9-2.9c0.6-0.6,1.6-0.6,2.2,0c0,0,0,0,0,0l0.9,0.9c0.6,0.6,0.6,1.6,0,2.2l-2.9,2.9
				C57.1,55.8,56.1,55.8,55.5,55.1C55.5,55.1,55.5,55.1,55.5,55.1"/>
			
				<linearGradient id="Trazado_102_00000160181939926838605200000001962471209150892679_" gradientUnits="userSpaceOnUse" x1="31.8906" y1="62.266" x2="31.8906" y2="61.3593" gradientTransform="matrix(7.5047 0 0 -6.4821 -139.5395 448.2344)">
				<stop  offset="0" style="stop-color:#AFFEA3"/>
				<stop  offset="1" style="stop-color:#2E472A"/>
			</linearGradient>
			<path id="Trazado_102" style="fill:url(#Trazado_102_00000160181939926838605200000001962471209150892679_);" d="M96.6,46.6
				l0.6-1.1c0.4-0.8,1.4-1.1,2.1-0.7c0,0,0,0,0,0l3.1,1.6c0.8,0.4,1.1,1.4,0.7,2.1c0,0,0,0,0,0l-0.6,1.1c-0.4,0.8-1.4,1.1-2.1,0.7
				c0,0,0,0,0,0l-3.1-1.6C96.5,48.3,96.2,47.3,96.6,46.6C96.6,46.6,96.6,46.6,96.6,46.6"/>
		</g>
	</g>
</g>
</svg>
