<?xml version="1.0" encoding="utf-8"?>
<!-- Generator: Adobe Illustrator 26.2.1, SVG Export Plug-In . SVG Version: 6.00 Build 0)  -->
<svg version="1.1" id="Capa_1" xmlns="http://www.w3.org/2000/svg" xmlns:xlink="http://www.w3.org/1999/xlink" x="0px" y="0px"
	 viewBox="0 0 200 265" style="enable-background:new 0 0 200 265;" xml:space="preserve">
<style type="text/css">
	.st0{clip-path:url(#SVGID_00000150790229039823392580000015554643225692053687_);}
	.st1{fill:url(#Trazado_74_00000049922213172683976850000003293392253998067085_);}
	.st2{fill:url(#Trazado_75_00000162334981216516476140000015292474246014662540_);}
	.st3{fill:url(#Trazado_76_00000098189146464332138980000014881708260839824801_);}
	.st4{fill:url(#Trazado_77_00000099664463795364286360000003141020021925125004_);}
	.st5{fill:url(#Trazado_78_00000162320264862821826170000017319250782663289993_);}
	.st6{fill:#A7C4B2;}
	.st7{fill:url(#Trazado_80_00000163774195443910755780000003457577503729809586_);}
	.st8{fill:url(#Trazado_81_00000004540487908783056680000008247944209822529942_);}
	.st9{fill:url(#Sustracción_37_00000139997967418142714120000007652133224206730664_);}
	.st10{fill:url(#Sustracción_48_00000101084188885263071050000006272225406316476819_);}
	.st11{fill:#FFFFFF;}
	.st12{fill:#1A1A1A;}
	.st13{fill:url(#Elipse_27_00000170957720645254918080000009296941583803884973_);}
	.st14{fill:url(#Elipse_28_00000069389500052827564390000002841833148889483427_);}
	.st15{opacity:0.11;fill:#FF0000;enable-background:new    ;}
	.st16{fill:#FFDAC8;}
</style>
<g id="Grupo_113" transform="translate(-860.92 -586)">
	<g id="Grupo_104" transform="translate(860.92 586)">
		<g>
			<defs>
				<rect id="SVGID_1_" x="1.5" y="2.6" width="198.2" height="260.5"/>
			</defs>
			<clipPath id="SVGID_00000098210801738009757850000012103234214010669953_">
				<use xlink:href="#SVGID_1_"  style="overflow:visible;"/>
			</clipPath>
			<g id="Grupo_103" style="clip-path:url(#SVGID_00000098210801738009757850000012103234214010669953_);">
				
					<radialGradient id="Trazado_74_00000168827936605942274730000009593102945955678369_" cx="3.4052" cy="260.8192" r="0.5" gradientTransform="matrix(104 0 0 -133 -257.8838 34831.1367)" gradientUnits="userSpaceOnUse">
					<stop  offset="0" style="stop-color:#FFD6BE"/>
					<stop  offset="1" style="stop-color:#FFF0F0"/>
				</radialGradient>
				<path id="Trazado_74" style="fill:url(#Trazado_74_00000168827936605942274730000009593102945955678369_);" d="M114.3,127.7
					c-13-18,1-52-18-52s-5,34-18,52c-14.2,19.7-34,6-34,46c0,19.3,23.3,35,52,35s52-15.7,52-35C148.3,133.7,128.5,147.4,114.3,127.7
					"/>
				
					<linearGradient id="Trazado_75_00000156558201645997762620000004070912960923932809_" gradientUnits="userSpaceOnUse" x1="7.7651" y1="259.5434" x2="6.2261" y2="259.2084" gradientTransform="matrix(37.6409 0 0 -78.65 -166.7166 20535.5215)">
					<stop  offset="0" style="stop-color:#D39F8B"/>
					<stop  offset="0.505" style="stop-color:#201611"/>
					<stop  offset="1" style="stop-color:#B77047"/>
				</linearGradient>
				<path id="Trazado_75" style="fill:url(#Trazado_75_00000156558201645997762620000004070912960923932809_);" d="M101.1,170.5
					c-4.5,5.1-10.6,8.4-17.4,9.4c-0.2-12.2-8.6-22.1-12.5-33.3c-3.9-10.9-2.3-23.1,4.3-32.6c3-4.3,7.1-8,9.3-12.8l1.5,1.5l0,0
					c-2.4,5.4-2.8,11.5-1.4,17.2c0.8,3.2,2.2,6.1,4.2,8.7c2.2,2.7,4.6,5.1,7.2,7.3c2.6,2.1,4.9,4.6,6.9,7.3c1.8,2.7,2.9,5.8,3.3,9
					C107.3,158.9,105.3,165.5,101.1,170.5"/>
				
					<linearGradient id="Trazado_76_00000021827689922732107330000010052257684333139363_" gradientUnits="userSpaceOnUse" x1="3.8491" y1="260.1426" x2="2.9331" y2="260.5206" gradientTransform="matrix(102.0856 0 0 -108.0792 -251.2669 28191.4277)">
					<stop  offset="0" style="stop-color:#DD9D73"/>
					<stop  offset="0.542" style="stop-color:#0F0F0F"/>
					<stop  offset="1" style="stop-color:#B77047"/>
				</linearGradient>
				<path id="Trazado_76" style="fill:url(#Trazado_76_00000021827689922732107330000010052257684333139363_);" d="M147.8,54.2
					c-1.2-3.9-8.1-12.9-11.3-18.3c-0.2-1.3-0.5-2.6-0.9-3.9c-1.9-7.1-5.5-13.8-11.2-18.5c-5.2-4.2-12-6.6-18.7-5.7c0,0,0,0.1,0,0.1
					c-2.8-3.5-7.8-5.3-12.2-5.4C86.9,2.5,80.3,5,74.5,8c-5.3,2.8-10.5,6.3-14,11.3c-4,5.7-4.8,12.5-4.7,19.3
					c0.1,3.1,0.3,6.1,0.5,9.2c-3.1,8.4-7.4,23.7-7.4,28c-0.1,5.6,2.1,10.9,5.9,14.9c3.7,3.7,8.5,5.7,13.3,7
					c9.6,2.8,20.4,3.9,27.5,12.8c1.2-0.9,2.4-1.7,3.7-2.3c2.5-1.4,5.1-2.8,7.7-4.1c9.4-4.7,19.2-8.7,28.5-13.6
					c7.2-3.8,15.4-9.9,15.5-20.2C151.1,64.9,149.3,59.3,147.8,54.2"/>
				
					<radialGradient id="Trazado_77_00000136404588289500247010000002560345186215960974_" cx="4.5017" cy="259.6062" r="0.5" gradientTransform="matrix(66.009 0 0 -85.461 -200.2758 22257.5664)" gradientUnits="userSpaceOnUse">
					<stop  offset="0" style="stop-color:#FFD7C4"/>
					<stop  offset="1" style="stop-color:#FFF3EB"/>
				</radialGradient>
				<path id="Trazado_77" style="fill:url(#Trazado_77_00000136404588289500247010000002560345186215960974_);" d="M128.9,54.6
					c-3,0.5-6.4-0.8-9-2.1c-2.9-1.5-5.5-3.5-7.7-6c-2.7-3.1-5-6.5-7-10c-1.5-2.4-2.6-5.1-3.5-7.8c-1.2,1.5-2.6,2.8-4.2,4
					c-2.5,2-5.3,3.7-7.9,5.6c-2.6,1.9-5.1,3.9-7.4,6c-8.7,7.9-15.7,18.2-18.3,30c3.6,22.7,20.3,39.9,31.2,39.9c0.5,0,1,0,1.5,0
					c0.5,0,1,0,1.5,0c12.3,0,31.9-21.9,31.9-48.9c0-3.6-0.2-7.1-0.6-10.7C129.1,54.5,129,54.5,128.9,54.6"/>
				
					<radialGradient id="Trazado_78_00000121244262620028045430000018416106097226388888_" cx="2.5768" cy="260.0172" r="0.5" gradientTransform="matrix(184.0014 0 0 -84.3921 -373.8817 22125.9453)" gradientUnits="userSpaceOnUse">
					<stop  offset="0" style="stop-color:#FFF2E9"/>
					<stop  offset="1" style="stop-color:#FFD9C7"/>
				</radialGradient>
				<path id="Trazado_78" style="fill:url(#Trazado_78_00000121244262620028045430000018416106097226388888_);" d="M185.7,218.9
					c-9.8-2.8-20.3-2.7-30,0.4c0.2,0.5,0.5,1,0.7,1.5c2.2,4.5,4.4,8.6,6.6,12.5c-16.8,5.4-35,4.9-51.5-1.3c-0.2-6-1-11.9-2.5-17.7
					c-0.9-3.6-2.1-7.1-3.5-10.5c0.5-3,2.5-17.3-3.5-23.7c-0.5-0.5-1-0.9-1.5-1.3c-0.5,0.4-1.1,0.8-1.5,1.3c-6,6.4-4,20.7-3.5,23.7
					c-1.4,3.4-2.6,6.9-3.5,10.5c-1.5,5.8-2.3,11.8-2.5,17.7c-16.5,6.3-34.7,6.7-51.5,1.3c2.2-3.8,4.4-8,6.6-12.5
					c0.2-0.3,0.3-0.7,0.5-1c-9.9-0.9-19.8,1.1-28.5,5.6c-1.3,0.7-2.5,1.4-3.9,2c-4,14-5.9,27-1.4,32.2c0.4,0.5,0.9,1,1.5,1.3
					c20.4,3.7,47.7,4.2,76.3-9.9c4-2,7.9-4.1,11.6-6.5c3.8,2.4,7.6,4.5,11.6,6.5c28.6,14,55.9,13.6,76.3,9.9
					c0.6-0.4,1.1-0.8,1.5-1.3C195,253.3,191.2,235.8,185.7,218.9"/>
				<path id="Trazado_79" class="st6" d="M88.6,251c-0.6,0.3-1.3,0.6-1.9,0.9c8.2,1.4,16.6,1,24.6-1.2c-3.9-1.9-7.6-4-11.1-6.2
					C96.5,246.9,92.6,249,88.6,251"/>
				
					<linearGradient id="Trazado_80_00000111188579617986016740000005140940789739835521_" gradientUnits="userSpaceOnUse" x1="3.6102" y1="259.9877" x2="3.5452" y2="258.7737" gradientTransform="matrix(95.3741 0 0 -81.7766 -292.0109 21413.2637)">
					<stop  offset="0" style="stop-color:#A7C4B2"/>
					<stop  offset="1" style="stop-color:#546259"/>
				</linearGradient>
				<path id="Trazado_80" style="fill:url(#Trazado_80_00000111188579617986016740000005140940789739835521_);" d="M91.7,214.2
					c0.9-3.6,2.1-7.1,3.5-10.5c-0.4-2.6-2-13.9,1.7-21c-0.2,0-0.4,0-0.6,0c-20.7,0-38.9-10.9-49.7-27.5c-2.7,4.2-4.9,8.7-6.6,13.3
					c-2.8,5.4-7.2,10-11.8,14.1c-5.9,5.4-12.4,10.3-17.1,16.7c-3.8,5.1-6.3,11.1-8.4,17.1c-1.2,3.5-2.1,7.9,0.6,10.4
					c1.7,1.6,4.3,1.9,6.5,1.3c2.2-0.7,4.3-1.7,6.3-2.9c8.8-4.5,18.7-6.5,28.5-5.6c-0.2,0.3-0.3,0.7-0.5,1c0,0.1-0.1,0.2-0.1,0.2
					c3.2,5.9,7.3,11.2,12.2,15.8c7.3,0.5,14.6,0,21.8-1.5c3.8-0.8,7.5-1.9,11.1-3.3C89.3,225.9,90.2,220,91.7,214.2"/>
				
					<linearGradient id="Trazado_81_00000055686377448663103070000006736920332093117082_" gradientUnits="userSpaceOnUse" x1="3.5883" y1="259.9854" x2="3.5233" y2="258.7714" gradientTransform="matrix(96.2752 0 0 -81.72 -191.027 21398.3496)">
					<stop  offset="0" style="stop-color:#A7C4B2"/>
					<stop  offset="1" style="stop-color:#546259"/>
				</linearGradient>
				<path id="Trazado_81" style="fill:url(#Trazado_81_00000055686377448663103070000006736920332093117082_);" d="M197.2,207.6
					c-3.2-5.5-6.8-10.8-11.5-15.1c-5.9-5.4-13.2-9-20.1-13.1c-4.6-2.6-8.9-5.8-12.7-9.6c-1.7-5.1-4.1-10-7-14.6
					c-9.5,14.9-25.1,24.8-42.6,27.1c4,7,2.3,18.8,1.9,21.4c1.4,3.4,2.6,6.9,3.5,10.5c1.5,5.8,2.3,11.8,2.5,17.7
					c3.6,1.4,7.3,2.5,11.1,3.3c4.5,1,9,1.5,13.6,1.7c4.5-4.2,8.3-9,11.4-14.2c11.8-6.1,25.5-7.4,38.3-3.7c2.2,0.8,4.5,1.3,6.8,1.6
					c2.3,0.1,4.8-0.7,6.2-2.6C200.8,214.9,199.1,210.7,197.2,207.6"/>
			</g>
		</g>
	</g>
	
		<linearGradient id="Sustracción_37_00000003083629409946295790000018058359914265493666_" gradientUnits="userSpaceOnUse" x1="868.4132" y1="811.3885" x2="868.5362" y2="810.3885" gradientTransform="matrix(21.4612 -4.5644 -1.774 -8.3413 -16225.0723 11377.4326)">
		<stop  offset="0" style="stop-color:#332016"/>
		<stop  offset="1" style="stop-color:#D69D76"/>
	</linearGradient>
	<path id="Sustracción_37" style="fill:url(#Sustracción_37_00000003083629409946295790000018058359914265493666_);" d="
		M986.9,651.3L986.9,651.3c-1.2-1.6-2.9-2.7-4.8-3c-2.5-0.6-5.1-0.6-7.7,0c-4.1,0.9-7.5,2.9-9.2,5.4c0-2,0.9-3.9,2.5-5.1
		c2-1.7,4.3-2.8,6.9-3.3c5.9-1.3,11.4,0.8,12.2,4.6C986.9,650.3,987,650.8,986.9,651.3L986.9,651.3z"/>
	
		<linearGradient id="Sustracción_48_00000015342749833854876050000016039633169456719548_" gradientUnits="userSpaceOnUse" x1="850.7494" y1="876.9445" x2="850.8724" y2="877.9445" gradientTransform="matrix(-21.4651 -4.5652 -1.774 8.3413 20763.0781 -2785.3589)">
		<stop  offset="0" style="stop-color:#332016"/>
		<stop  offset="1" style="stop-color:#D69D76"/>
	</linearGradient>
	<path id="Sustracción_48" style="fill:url(#Sustracción_48_00000015342749833854876050000016039633169456719548_);" d="
		M931.7,651.3L931.7,651.3c1.2-1.6,2.9-2.7,4.8-3c2.5-0.6,5.1-0.6,7.7,0c4.1,0.9,7.5,2.9,9.2,5.4c0-2-0.9-3.9-2.5-5.1
		c-2-1.7-4.3-2.8-6.9-3.3c-5.9-1.3-11.4,0.8-12.2,4.6C931.7,650.3,931.7,650.8,931.7,651.3z"/>
	<path id="Sustracción_39" class="st11" d="M958,688.8c-5.2,0-9.5-2.5-9.5-5.6c0-0.3,0.1-0.7,0.1-1c3.1,0.7,6.2,1,9.4,1
		c3.1,0,6.3-0.3,9.4-1c0.1,0.3,0.1,0.6,0.1,1C967.5,686.3,963.2,688.8,958,688.8z"/>
	<path id="Sustracción_40" class="st12" d="M975,662.6c-4,0.8-7.6-0.1-7.9-2c-0.1-0.5,0-1,0.3-1.5c1.4,1,4.2,1.3,7.1,0.7
		c2.9-0.6,5.4-1.9,6.3-3.3c0.4,0.3,0.7,0.7,0.9,1.2C982,659.6,979,661.8,975,662.6z"/>
	<path id="Sustracción_43" class="st12" d="M940.5,662.5c-4-0.9-6.9-3.2-6.5-5c0.1-0.5,0.5-0.9,0.9-1.2c0.9,1.5,3.3,2.9,6.2,3.5
		c2.9,0.7,5.7,0.5,7.1-0.5c0.3,0.4,0.4,1,0.3,1.5C948.1,662.7,944.5,663.5,940.5,662.5z"/>
	
		<linearGradient id="Elipse_27_00000105399929610087161150000012754973453649971855_" gradientUnits="userSpaceOnUse" x1="880.4327" y1="823.1327" x2="880.4327" y2="822.1327" gradientTransform="matrix(11 0 0 -11 -8706.7578 9721.0547)">
		<stop  offset="0" style="stop-color:#FFBBBB;stop-opacity:0.761"/>
		<stop  offset="1" style="stop-color:#FF8787;stop-opacity:0.761"/>
	</linearGradient>
	
		<circle id="Elipse_27" style="fill:url(#Elipse_27_00000105399929610087161150000012754973453649971855_);" cx="978" cy="672.1" r="5.5"/>
	
		<linearGradient id="Elipse_28_00000167360407677299069920000006224661998446423200_" gradientUnits="userSpaceOnUse" x1="880.4327" y1="823.1327" x2="880.4327" y2="822.1327" gradientTransform="matrix(11 0 0 -11 -8745.7578 9721.0547)">
		<stop  offset="0" style="stop-color:#FFBBBB;stop-opacity:0.761"/>
		<stop  offset="1" style="stop-color:#FF8787;stop-opacity:0.761"/>
	</linearGradient>
	
		<circle id="Elipse_28" style="fill:url(#Elipse_28_00000167360407677299069920000006224661998446423200_);" cx="939" cy="672.1" r="5.5"/>
	<path id="Trazado_84" class="st15" d="M958,677.1l0-19c0,0-6.6,12.9-6.6,17.3S958,677.1,958,677.1z"/>
	<path id="Sustracción_44" class="st16" d="M958,679.1c-4.4,0-8.1-1.1-8.1-2.5c0-0.4,0.3-0.8,0.7-1c1.3,0.9,4.2,1.5,7.4,1.5
		s6.1-0.6,7.4-1.5c0.4,0.2,0.6,0.6,0.7,1C966.1,678,962.4,679.1,958,679.1z"/>
</g>
</svg>
