<?xml version="1.0" encoding="utf-8"?>
<!-- Generator: Adobe Illustrator 26.2.1, SVG Export Plug-In . SVG Version: 6.00 Build 0)  -->
<svg version="1.0" id="Capa_1" xmlns="http://www.w3.org/2000/svg" xmlns:xlink="http://www.w3.org/1999/xlink" x="0px" y="0px"
	 viewBox="0 0 225 122" style="enable-background:new 0 0 225 122;" xml:space="preserve">
<style type="text/css">
	.st0{fill:none;}
	.st1{fill:#F5F2F7;}
	.st2{fill:#E1DBE5;}
	.st3{fill:#CF000E;}
	.st4{fill:#FFFFFF;}
	.st5{fill:#181430;}
</style>
<rect x="-69" y="-84" transform="matrix(0.3746 -0.9272 0.9272 0.3746 -46.7053 -8.3072)" class="st0" width="78.9" height="229"/>
<g id="Grupo_93">
	<path id="Trazado_63" class="st1" d="M15.5,3.7c8.8,7,18.3,16.2,17.3,21.4c-2.9,4.5-16.1,4.5-27.3,3.4c-1.9-0.2-3.6,0.4-1.8,1.1
		c5.1,2,12.7,7.3,22.6,6.8c8.9-0.5,13.8,0.5,17-0.5c5.4,5.4,16.5,12.9,29.8,20.8c-2.7,1.4-4.2,3-3.2,5.1c1.6,3.7,9.5,8,16,5.2
		c1-0.4,1.9-0.9,2.8-1.4c18.1,10.1,37.8,20.1,52.8,27c-0.2,0.1-0.4,0.2-0.6,0.3c-8,3.4-14.7,5.6-12.8,10.3c2,4.6,11.9,9.9,19.9,6.5
		c5.3-2.3,9.3-5.9,10.8-9.4c26.5,10.4,51.1,11.4,57.7,2.7l0,0c0,0.1,0.1,0.1,0.1,0.2c0,0,0,0,0,0.1c0,0,0,0,0,0.1l0,0
		c0,0.1,0,0.1,0,0.2c0,0.2,0.1,0.5,0.1,0.7c0,0.1,0,0.1,0,0.2l0,0c0,0,0,0,0,0l0,0c0,0,0,0.1,0,0.1c0,0.1,0,0.1,0,0.2
		c0,0.3,0,0.5-0.1,0.8c0,0.1,0,0.2-0.1,0.3c0,0,0,0,0,0c0,0,0,0,0,0.1l0,0c0,0,0,0,0,0l0,0c-0.1,0.3-0.2,0.5-0.3,0.7
		c-0.1,0.2-0.2,0.4-0.3,0.6c0,0,0,0.1-0.1,0.1c-0.1,0.1-0.1,0.2-0.2,0.3c-0.1,0.2-0.3,0.4-0.4,0.6c-0.1,0.1-0.1,0.2-0.2,0.3
		c0,0-0.1,0.1-0.1,0.1l-0.1,0.1c-0.4,0.4-0.9,0.8-1.4,1.1c-0.1,0-0.1,0.1-0.2,0.1l-0.1,0c-0.1,0.1-0.1,0,0.1,0c0,0-0.3,0.2-0.3,0.2
		c-0.3,0.1-0.6,0.3-0.8,0.4c-0.5,0.2-1.1,0.4-1.6,0.6l-0.2,0l0,0l0,0c-0.1,0-0.3,0.1-0.4,0.1c-0.3,0.1-0.6,0.1-0.9,0.2
		c-1.2,0.3-2.5,0.4-3.8,0.5c-2.6,0.1-5.2,0.6-7.7,1.4c-2.7,0.9-4.9,2.8-6.1,5.3c-0.2,0.6,0,1.2,0.6,1.4c0.6,0.2,1.2-0.1,1.4-0.6
		c0.1-0.1,0.1-0.3,0.2-0.4c0-0.1,0.1-0.1,0.1-0.2c0.2-0.3,0.3-0.5,0.5-0.8c0.2-0.2,0.3-0.4,0.5-0.6c0.1,0,0.1-0.1,0.2-0.1
		c0.1-0.1,0.2-0.2,0.4-0.3c0.2-0.2,0.4-0.3,0.6-0.5c0.1-0.1,0.2-0.2,0.4-0.2c0.1,0,0.1-0.1,0.2-0.1l0.1-0.1c0.1-0.1,0.1,0-0.1,0
		c0.1-0.1,0.3-0.2,0.4-0.2c0.1-0.1,0.3-0.1,0.4-0.2c0.3-0.1,0.5-0.2,0.8-0.4c0.3-0.1,0.5-0.2,0.8-0.3c0.1,0,0.3-0.1,0.4-0.1l0,0
		l0.1,0l0.2,0c0.7-0.2,1.3-0.3,2-0.4c1.3-0.2,2.7-0.3,4-0.5c2.5-0.2,5-0.7,7.4-1.6c2.3-0.9,4.1-2.6,5.2-4.8c1.1-2.3,0.9-5-0.5-7.1
		c0.1-0.2,0.1-0.3,0.2-0.5c2.3-0.4,4.2-1.9,5.1-4c1-2.2,1-4.7,0.2-7c-0.9-2.3-2.2-4.5-3.9-6.3c-0.8-1-1.7-2-2.6-3.1
		c-0.4-0.5-0.8-1-1.2-1.6c-0.2-0.3-0.4-0.6-0.5-0.8c0,0,0-0.1-0.1-0.1c0,0,0,0,0-0.1c-0.1-0.1-0.2-0.3-0.2-0.4
		c-0.3-0.6-0.6-1.2-0.8-1.8c-0.1-0.2-0.1-0.3-0.2-0.5l0-0.1c0-0.1,0-0.1,0,0.1c0-0.1-0.1-0.2-0.1-0.3c-0.1-0.3-0.1-0.6-0.2-0.9
		c-0.1-0.3-0.1-0.7-0.1-1l0,0c0-0.1,0-0.2,0-0.3c0-0.1,0-0.3,0-0.4c0-0.3,0.1-0.7,0.1-1c0-0.1,0-0.1,0-0.2c0,0,0,0,0-0.1
		c0-0.2,0.1-0.3,0.2-0.5c0.2-0.6-0.1-1.2-0.7-1.4c-0.6-0.2-1.2,0.1-1.4,0.6c-0.8,2.4-0.7,5,0.3,7.4c1.1,2.4,2.5,4.5,4.3,6.4
		c0.8,1,1.7,1.9,2.4,3c0.3,0.5,0.7,1,1,1.5c0.1,0.1,0.2,0.2,0.2,0.4l0,0l0.1,0.1c0.2,0.3,0.3,0.6,0.4,0.8c0.3,0.5,0.5,1.1,0.7,1.6
		c0,0.1,0.1,0.3,0.1,0.3l0-0.1l0,0.1c0,0.1,0,0.1,0.1,0.2c0.1,0.3,0.1,0.6,0.2,0.8c0,0.3,0.1,0.6,0.1,0.9l0,0.1c0,0,0,0.1,0,0.1
		c0,0.1,0,0.3,0,0.4c0,0.2,0,0.5-0.1,0.7c0,0.1,0,0.2-0.1,0.3l0,0l0-0.1c0,0.1,0,0.2-0.1,0.2c-0.1,0.3-0.2,0.5-0.3,0.8
		c-0.1,0.1-0.1,0.3-0.2,0.4c0,0.1-0.1,0.1-0.1,0.2c0,0,0,0.1-0.1,0.1c-0.1,0.2-0.3,0.4-0.4,0.6c-0.1,0.2-0.3,0.3-0.4,0.5
		c0,0-0.1,0.1-0.1,0.1l0,0l0,0l0,0c-0.1,0.1-0.1,0.1-0.2,0.1c-0.1,0.1-0.2,0.2-0.3,0.3c-0.1,0.1-0.2,0.1-0.3,0.2
		c0,0-0.1,0.1-0.1,0.1l0.1,0c0,0,0,0-0.1,0c-0.2,0.1-0.4,0.2-0.6,0.3c0-10.9-18.1-26.6-43.6-37.2c2.4-3.4,2.4-9.7-0.2-16
		c-3.4-8-14.2-11.1-18.8-9.1c-4.6,2-1.3,8.2,2.1,16.2c0.5,1.1,1,2.2,1.6,3.2c-15.6-5.4-37.5-12.2-58.3-17.8
		c-0.3-1.3-0.7-2.7-1.2-3.9c-2.7-6.5-11.4-8.9-15.1-7.4c-2.4,1-2.1,3.5-0.9,6.9c-14.3-3.4-26.9-5.7-34.9-5.8
		c-0.3-4.2-5-6.3-12.6-14.5C29.2,5.2,20.1,3.8,15,1.7C13.2,0.9,14,2.5,15.5,3.7 M199.2,115.1c0,0,0.1,0,0.1,0L199.2,115.1
		 M214.6,77.3L214.6,77.3L214.6,77.3 M220.4,95.7C220.4,95.8,220.4,95.9,220.4,95.7"/>
	<path id="Trazado_64" class="st2" d="M216.4,103.4L216.4,103.4C216.3,103.2,216.3,103.2,216.4,103.4L216.4,103.4L216.4,103.4"/>
	<path id="Trazado_65" class="st2" d="M216.5,104.4c0,0.2,0,0.2,0,0.1C216.5,104.5,216.5,104.5,216.5,104.4L216.5,104.4"/>
	<path id="Trazado_66" class="st2" d="M216.3,105.9C216.4,105.8,216.4,105.7,216.3,105.9C216.3,106,216.3,105.9,216.3,105.9
		C216.3,105.9,216.3,105.9,216.3,105.9"/>
	<path id="Trazado_67" class="st2" d="M218.7,97.6C218.7,97.5,218.8,97.5,218.7,97.6"/>
	<path id="Trazado_68" class="st2" d="M221.1,94.1C221,94.4,221.1,94.2,221.1,94.1"/>
	<path id="Trazado_69" class="st2" d="M219.7,96.8c0,0-0.1,0.1-0.1,0.1l0,0C219.6,96.9,219.6,96.8,219.7,96.8"/>
	<path id="Trazado_70" class="st3" d="M79.9,47.1c1.6-3.6,8.2-4.1,14.7-1.2s10.5,8.2,9,11.7s-8.2,4.1-14.7,1.2S78.3,50.6,79.9,47.1"
		/>
	<path id="Trazado_71" class="st4" d="M40.8,31.8l175.4,70.9c0.6-0.7,1.1-1.5,1.5-2.4c4.4-10.9-15.4-29.2-44.4-40.9
		S44.5,17.6,40.1,28.5C39.8,29.4,40,30.5,40.8,31.8"/>
	<path id="Trazado_72" class="st3" d="M145.7,80.1c2.4-5.8,9.7-8.4,16.5-5.6c6.7,2.7,10.3,9.7,7.9,15.5c-2.4,5.8-9.7,8.4-16.5,5.6
		S143.3,85.9,145.7,80.1"/>
	<path id="Trazado_73" class="st5" d="M115.3,50.3c1.5-3.6,5.6-5.4,9.2-3.9c3.6,1.5,5.4,5.6,3.9,9.2c-1.5,3.6-5.6,5.4-9.2,3.9
		C115.6,58,113.9,53.9,115.3,50.3C115.3,50.3,115.3,50.3,115.3,50.3"/>
</g>
</svg>
