<?xml version="1.0" encoding="utf-8"?>
<!-- Generator: Adobe Illustrator 26.3.1, SVG Export Plug-In . SVG Version: 6.00 Build 0)  -->
<svg version="1.1" id="Capa_1" xmlns="http://www.w3.org/2000/svg" xmlns:xlink="http://www.w3.org/1999/xlink" x="0px" y="0px"
	 viewBox="0 0 75 75" style="enable-background:new 0 0 75 75;" xml:space="preserve">
<style type="text/css">
	.st0{fill:#E7FFC6;}
</style>
<path id="Sustracción_49" class="st0" d="M4.2,37.8c0-4.8,0.9-9.5,2.7-14c1.7-4.3,4.2-8.1,7.4-11.4c3.1-3.3,6.8-5.9,11-7.7
	c11-4.9,23.8-3.4,33.5,3.8c2.8,2.1,5.3,4.6,7.4,7.5s3.8,6.1,5,9.5l-16,11.9l16.3,12.1l0,0l0,0c-1.1,3.5-2.8,6.8-4.9,9.8
	c-2.1,2.9-4.6,5.5-7.5,7.7c-9.7,7.4-22.6,8.9-33.7,4c-4.1-1.8-7.9-4.4-11-7.7C11.2,60,8.7,56.1,7,51.9C5.1,47.3,4.2,42.6,4.2,37.8"
	/>
</svg>
