<?xml version="1.0" encoding="utf-8"?>
<!-- Generator: Adobe Illustrator 26.2.1, SVG Export Plug-In . SVG Version: 6.00 Build 0)  -->
<svg version="1.1" id="Capa_1" xmlns="http://www.w3.org/2000/svg" xmlns:xlink="http://www.w3.org/1999/xlink" x="0px" y="0px"
	 viewBox="0 0 75 75" style="enable-background:new 0 0 75 75;" xml:space="preserve">
<style type="text/css">
	.st0{fill:url(#Sustracci贸n_49_00000076570231800146591930000004528910783442983324_);}
</style>
<radialGradient id="Sustracci贸n_49_00000039117727811443816390000005406616334606581159_" cx="-4.8443" cy="70.3112" r="0.5" gradientTransform="matrix(4.410462e-15 -72.0283 -67.2363 -4.117038e-15 4782.5942 -311.419)" gradientUnits="userSpaceOnUse">
	<stop  offset="0" style="stop-color:#E7FFC6"/>
	<stop  offset="1" style="stop-color:#A1C075"/>
</radialGradient>
<path id="Sustracci贸n_49" style="fill:url(#Sustracci贸n_49_00000039117727811443816390000005406616334606581159_);" d="M4.2,37.8
	c0-4.8,0.9-9.5,2.7-14c1.7-4.3,4.2-8.1,7.4-11.4c3.1-3.3,6.8-5.9,11-7.7c11-4.9,23.8-3.4,33.5,3.8c2.8,2.1,5.3,4.6,7.4,7.5
	c2.1,2.9,3.8,6.1,5,9.5l-16,11.9l16.3,12.1l0,0l0,0c-1.1,3.5-2.8,6.8-4.9,9.8c-2.1,2.9-4.6,5.5-7.5,7.7c-9.7,7.4-22.6,8.9-33.7,4
	c-4.1-1.8-7.9-4.4-11-7.7c-3.2-3.3-5.7-7.2-7.4-11.4C5.1,47.3,4.2,42.6,4.2,37.8"/>
</svg>
