<?xml version="1.0" encoding="utf-8"?>
<!-- Generator: Adobe Illustrator 26.2.1, SVG Export Plug-In . SVG Version: 6.00 Build 0)  -->
<svg version="1.1" id="Capa_1" xmlns="http://www.w3.org/2000/svg" xmlns:xlink="http://www.w3.org/1999/xlink" x="0px" y="0px"
	 viewBox="0 0 100 100" style="enable-background:new 0 0 100 100;" xml:space="preserve">
<style type="text/css">
	.st0{clip-path:url(#SVGID_00000093170476942264295440000013608777412421147781_);}
	.st1{fill:url(#Trazado_16_00000046313998850865493580000004329283469634036102_);}
	.st2{fill:url(#Trazado_17_00000051361448446169663300000000516921010587961260_);}
	.st3{fill:#FFF8FD;}
	.st4{fill:url(#Trazado_19_00000018942978626637305920000004917530902136838063_);}
</style>
<g>
	<defs>
		<rect id="SVGID_1_" x="1.7" y="2" width="96.2" height="96.2"/>
	</defs>
	<clipPath id="SVGID_00000039848145132590786480000011975581395070483611_">
		<use xlink:href="#SVGID_1_"  style="overflow:visible;"/>
	</clipPath>
	<g id="Grupo_38" style="clip-path:url(#SVGID_00000039848145132590786480000011975581395070483611_);">
		
			<linearGradient id="Trazado_16_00000017494913473586276870000012655179241438639491_" gradientUnits="userSpaceOnUse" x1="3.6314" y1="97.698" x2="3.6314" y2="96.844" gradientTransform="matrix(112.642 0 0 -112.642 -359.2798 11006.8965)">
			<stop  offset="0" style="stop-color:#FFFFFF"/>
			<stop  offset="1" style="stop-color:#FFE3F5"/>
		</linearGradient>
		<path id="Trazado_16" style="fill:url(#Trazado_16_00000017494913473586276870000012655179241438639491_);" d="M73.8,38.8
			c-5.3-0.1-10.5,0.8-15.4,2.6c1.8-4.9,2.7-10.2,2.6-15.4C61,12.8,49.8,2,49.8,2S38.5,12.8,38.5,26c-0.1,5.3,0.8,10.5,2.6,15.4
			c-4.9-1.8-10.2-2.7-15.4-2.6c-13.3,0-24,11.2-24,11.2s10.8,11.2,24,11.2c5.3,0.1,10.5-0.8,15.4-2.6c-1.8,4.9-2.7,10.2-2.6,15.4
			c0,13.3,11.2,24,11.2,24S61,87.4,61,74.1c0.1-5.3-0.8-10.5-2.6-15.4c4.9,1.8,10.2,2.7,15.4,2.6c13.3,0,24-11.2,24-11.2
			S87.1,38.8,73.8,38.8"/>
		
			<radialGradient id="Trazado_17_00000182493299399125582750000010222161362630940584_" cx="4.5141" cy="95.934" r="0.427" gradientTransform="matrix(79.6567 0 0 -79.6577 -309.8013 7691.9756)" gradientUnits="userSpaceOnUse">
			<stop  offset="0" style="stop-color:#FFFFFF"/>
			<stop  offset="1" style="stop-color:#FF83CF"/>
		</radialGradient>
		<path id="Trazado_17" style="fill:url(#Trazado_17_00000182493299399125582750000010222161362630940584_);" d="M62,50.1
			c4.8-2.2,9.1-5.3,12.8-9.1c9.4-9.4,9.1-25,9.1-25s-15.6-0.3-25,9.1c-3.8,3.7-6.8,8-9.1,12.8c-2.2-4.8-5.3-9.1-9.1-12.8
			c-9.4-9.4-25-9.1-25-9.1s-0.3,15.6,9.1,25c3.7,3.8,8,6.8,12.8,9.1c-4.8,2.2-9.1,5.3-12.8,9.1c-9.4,9.4-9.1,25-9.1,25
			s15.6,0.3,25-9.1c3.8-3.7,6.8-8,9.1-12.8c2.2,4.8,5.3,9.1,9.1,12.8c9.4,9.4,25,9.1,25,9.1s0.3-15.6-9.1-25
			C71.1,55.4,66.7,52.3,62,50.1"/>
		<path id="Trazado_18" class="st3" d="M55,44.8c1.1-3,1.6-6.2,1.6-9.4c0-8.1-6.8-14.6-6.8-14.6s-6.8,6.6-6.8,14.6
			c0,3.2,0.5,6.4,1.6,9.4c-3-1.1-6.2-1.6-9.4-1.6c-8.1,0-14.6,6.8-14.6,6.8s6.6,6.8,14.6,6.8c3.2,0,6.4-0.5,9.4-1.6
			c-1.1,3-1.6,6.2-1.6,9.4c0,8.1,6.8,14.6,6.8,14.6s6.8-6.6,6.8-14.6c0-3.2-0.5-6.4-1.6-9.4c3,1.1,6.2,1.6,9.4,1.6
			c8.1,0,14.6-6.8,14.6-6.8s-6.6-6.8-14.6-6.8C61.2,43.2,58,43.7,55,44.8"/>
		
			<radialGradient id="Trazado_19_00000102539278123934886670000002509514241761366929_" cx="10.6137" cy="86.6935" r="0.427" gradientTransform="matrix(26.344 0 0 -26.344 -229.8328 2333.9482)" gradientUnits="userSpaceOnUse">
			<stop  offset="0" style="stop-color:#FFFFFF"/>
			<stop  offset="1" style="stop-color:#FFF5B5"/>
		</radialGradient>
		<path id="Trazado_19" style="fill:url(#Trazado_19_00000102539278123934886670000002509514241761366929_);" d="M61,50.1
			c0-6.2-5-11.2-11.2-11.2s-11.2,5-11.2,11.2c0,6.2,5,11.2,11.2,11.2l0,0C56,61.3,61,56.3,61,50.1"/>
	</g>
</g>
</svg>
