<?xml version="1.0" encoding="utf-8"?>
<!-- Generator: Adobe Illustrator 26.1.0, SVG Export Plug-In . SVG Version: 6.00 Build 0)  -->
<svg version="1.0" id="Capa_1" xmlns="http://www.w3.org/2000/svg" xmlns:xlink="http://www.w3.org/1999/xlink" x="0px" y="0px"
	 viewBox="0 0 30 30" style="enable-background:new 0 0 30 30;" xml:space="preserve">
<style type="text/css">
	.st0{clip-path:url(#SVGID_00000111169719617734797490000008699964500028707254_);}
	.st1{fill:#FFFFFF;}
</style>
<g>
	<defs>
		<rect id="SVGID_1_" x="5.3" y="1.1" width="18.7" height="27.7"/>
	</defs>
	<clipPath id="SVGID_00000161592408265278617510000012059743831843555465_">
		<use xlink:href="#SVGID_1_"  style="overflow:visible;"/>
	</clipPath>
	<g id="Grupo_36" style="clip-path:url(#SVGID_00000161592408265278617510000012059743831843555465_);">
		<path id="Trazado_12" class="st1" d="M21.3,3.9c-3.4-3.7-9.2-3.8-12.8-0.4C8.3,3.7,8.2,3.8,8,3.9c-1.8,1.9-2.7,4.3-2.7,6.9
			c0,2.2,1.5,5.8,4.5,10.7c2.2,3.6,4.4,6.6,4.4,6.6l0.4,0.6l0.4-0.6c0,0,2.2-3,4.4-6.6c3-4.9,4.5-8.5,4.5-10.7
			C24,8.2,23,5.8,21.3,3.9 M18.6,20.9c-1.6,2.6-3.2,4.9-3.9,6c-0.8-1.1-2.4-3.3-3.9-6c-2.8-4.6-4.3-8.1-4.3-10.1
			C6.3,6.1,10,2.3,14.7,2.2c4.7,0.1,8.4,4,8.2,8.6C22.9,12.8,21.4,16.3,18.6,20.9"/>
		<path id="Trazado_13" class="st1" d="M18.5,13.2c-0.2,0-0.3,0.1-0.4,0.2c-1.7,1.9-4.7,2-6.6,0.3c-0.1-0.1-0.2-0.2-0.3-0.3
			c-0.1-0.1-0.2-0.2-0.4-0.2c-0.2,0-0.3,0.1-0.4,0.3c-0.1,0.1-0.1,0.3,0,0.4c0.2,0.3,0.5,0.6,0.8,0.8c0.5,0.4,1,0.6,1.5,0.8
			c1.2,0.4,2.5,0.4,3.8,0c0.6-0.2,1.1-0.5,1.5-0.8c0.3-0.2,0.6-0.5,0.8-0.8c0.1-0.1,0.1-0.3,0-0.4C18.8,13.3,18.7,13.2,18.5,13.2"/>
		<path id="Trazado_14" class="st1" d="M11.8,10.3c0.5,0.1,1-0.3,1.1-0.8c0.1-0.5-0.3-1-0.8-1.1c-0.5-0.1-1,0.3-1.1,0.8
			c0,0.1,0,0.1,0,0.2C11,9.8,11.3,10.2,11.8,10.3"/>
		<path id="Trazado_15" class="st1" d="M17.5,10.3c0.5,0.1,1-0.3,1.1-0.8c0.1-0.5-0.3-1-0.8-1.1c-0.5-0.1-1,0.3-1.1,0.8
			c0,0.1,0,0.1,0,0.2C16.7,9.8,17,10.2,17.5,10.3"/>
	</g>
</g>
</svg>
