<?xml version="1.0" encoding="utf-8"?>
<!-- Generator: Adobe Illustrator 26.2.1, SVG Export Plug-In . SVG Version: 6.00 Build 0)  -->
<svg version="1.1" id="Capa_1" xmlns="http://www.w3.org/2000/svg" xmlns:xlink="http://www.w3.org/1999/xlink" x="0px" y="0px"
	 viewBox="0 0 1980 613" style="enable-background:new 0 0 1980 613;" xml:space="preserve">
<style type="text/css">
	.st0{fill:url(#Sustracci贸n_49_00000088114030886727828080000009614497741220127372_);}
</style>
<radialGradient id="Sustracci贸n_49_00000096772665415426817640000012547183389145067648_" cx="1.2114" cy="664.7311" r="0.4965" gradientTransform="matrix(1994.0667 0 0 -614.568 -1425.6401 408723.0625)" gradientUnits="userSpaceOnUse">
	<stop  offset="0" style="stop-color:#E1E8E2"/>
	<stop  offset="1" style="stop-color:#B1CBB1"/>
</radialGradient>
<path id="Sustracci贸n_49" style="fill:url(#Sustracci贸n_49_00000096772665415426817640000012547183389145067648_);" d="
	M1007.9,612.5L1007.9,612.5c-3.1-1.5-6.5-2.2-10-2.3c-1,0-1.9,0.1-2.9,0.2c0,0,0,0.1,0,0.1c-1.5-1.8-3.4-3.1-5.5-4
	c-2.1-0.9-4.4-1.3-6.7-1.4c-0.2,0-0.3,0-0.5,0c-4.5,0.1-8.9,1.1-13,2.9c-4.2-7.2-8.5-14-12.9-20.2c-4.6-6.5-9.5-12.7-14.7-18.7
	c-4.4-5.2-9.4-9.9-14.9-14c-5.4-4-11.5-6.8-18.1-8.1c-5.6-1.1-11.3-1.7-17.1-1.7c-6.1,0-12.1,0.6-18,1.7c-6,1.1-11.9,2.5-17.7,4.4
	c-11.7,3.6-23.4,8.5-34.8,13.3l-0.1,0c-11.3,4.7-23.1,9.7-34.9,13.3c-5.8,1.8-11.8,3.3-17.8,4.4c-6,1.1-12.1,1.6-18.1,1.7
	c-3.6,0-7.1-0.2-10.6-0.6c-5.7-0.7-11.3-2-16.7-4c-5.1-1.9-10-4.4-14.5-7.4c-4.5-3-8.8-6.5-12.7-10.3c-4-3.9-7.7-8.1-11-12.5
	c-6.9-9.3-13.1-19.1-18.3-29.5c-5.4-10.4-10.3-21.1-15-31.4l-0.1-0.2c-0.4-0.9-0.8-1.7-1.2-2.5c-9.1-20-18.5-40.7-31.6-58.7
	c-6.5-9-14-17.3-22.3-24.8c-8.2-7.4-17-13.9-26.5-19.5c-9.5-5.6-19.5-10.3-29.8-14.2c-10.3-3.8-20.8-6.9-31.5-9.2
	c-10.7-2.3-21.5-4-32.4-5c-10.4-1-21.4-1.5-32.6-1.5c-0.8,0-1.6,0-2.4,0c-10.3,0.1-20.8,0.6-32.1,1.7c-10.1,0.9-20.6,2.3-32.1,4.1
	c-21.4,3.4-43.3,7.9-64.4,12.2c-21.4,4.4-43.6,9-65.4,12.4c-11.7,1.8-22.4,3.2-32.6,4.1c-11.5,1-22.2,1.5-32.6,1.5
	c-30.5,0-57.8-4.5-83.5-13.6c-12.7-4.5-24.8-10.4-36.1-17.8c-11.5-7.5-21.8-16.6-30.5-27.2c-4.8-5.9-9-12.3-12.6-19.1
	c-3.5-6.8-6.5-13.8-8.9-21c-2.4-7.3-4.3-14.8-5.8-22.4c-1.4-7.2-2.5-15-3.2-23.1c-1.1-12.5-1.6-26-1.7-42.6v-1.6
	c0-10.1,0.2-20.4,0.4-30.4v0c0.1-6.1,0.2-12.5,0.3-18.7l0.5-44.5c0.2-19.8,0.5-39.6,0.7-59.4c0.1-7.5,0.2-15,0.3-22.5v-0.1
	c0.1-7.5,0.2-15,0.3-22.6h1975.2c0.2,15,0.4,30.1,0.5,45.1c0.1,10.3,0.2,20.5,0.4,30.8l0.2,15.4c0.2,19.2,0.5,38.5,0.7,57.7
	c0.1,6.3,0.2,12.9,0.3,18.7c0.5,24.5,0.9,49.8-1.3,74.6c-0.7,8.1-1.8,15.8-3.2,23.1c-1.4,7.6-3.4,15.1-5.8,22.4
	c-2.4,7.2-5.3,14.3-8.9,21c-3.5,6.8-7.7,13.1-12.6,19.1c-8.7,10.6-19,19.7-30.5,27.2c-11.3,7.3-23.4,13.3-36.1,17.8
	c-25.7,9.2-53,13.6-83.5,13.6c-10.4,0-21.1-0.5-32.6-1.5c-10.2-0.9-20.9-2.3-32.6-4.1c-21.8-3.4-44-8-65.4-12.4
	c-21.1-4.4-42.9-8.9-64.4-12.2c-11.5-1.8-22.1-3.1-32.1-4.1c-11.3-1.1-21.8-1.6-32.1-1.7c-0.8,0-1.6,0-2.4,0
	c-11.2,0-22.2,0.5-32.6,1.5c-10.9,1-21.7,2.7-32.4,5c-10.7,2.3-21.2,5.4-31.5,9.2c-10.3,3.9-20.3,8.6-29.8,14.2
	c-9.5,5.6-18.3,12.1-26.5,19.5c-8.3,7.5-15.8,15.8-22.3,24.8c-13,18-22.5,38.7-31.6,58.7l-0.8,1.8l-0.4,1c-4.7,10.3-9.5,21-15,31.4
	c-5.2,10.3-11.4,20.2-18.3,29.5c-3.4,4.4-7.1,8.6-11,12.5c-3.9,3.8-8.1,7.3-12.7,10.3c-4.5,3-9.4,5.5-14.5,7.4c-5.4,2-11,3.4-16.7,4
	c-3.5,0.4-7.1,0.6-10.6,0.6c-6.1,0-12.2-0.6-18.1-1.7c-6-1.1-11.9-2.6-17.8-4.4c-11.8-3.6-23.5-8.5-34.9-13.3l-0.1,0
	c-11.3-4.7-23.1-9.7-34.8-13.3c-5.8-1.8-11.7-3.3-17.7-4.4c-6-1.1-12-1.6-18-1.7c-5.7,0-11.4,0.5-17.1,1.7
	c-6.6,1.3-12.7,4.1-18.1,8.1c-5.5,4.1-10.5,8.8-14.9,14c-5.8,6.6-11.2,13.5-16.2,20.8C1017.1,596.9,1012.4,604.5,1007.9,612.5
	L1007.9,612.5z"/>
</svg>
