<?xml version="1.0" encoding="utf-8"?>
<!-- Generator: Adobe Illustrator 26.3.1, SVG Export Plug-In . SVG Version: 6.00 Build 0)  -->
<svg version="1.1" id="Capa_1" xmlns="http://www.w3.org/2000/svg" xmlns:xlink="http://www.w3.org/1999/xlink" x="0px" y="0px"
	 viewBox="0 0 120 120" style="enable-background:new 0 0 120 120;" xml:space="preserve">
<style type="text/css">
	.st0{fill:url(#Trazado_156_00000134216815335876807040000014439823832296721338_);}
	.st1{clip-path:url(#SVGID_00000065778509392615123610000015866094337228578215_);}
	.st2{fill:url(#Trazado_171_00000049904209323260478210000001679406703261507005_);}
	.st3{clip-path:url(#SVGID_00000064321841355168640750000003633764185056455313_);}
	.st4{fill:url(#Trazado_179_00000057110623745066923000000000305071566829896835_);}
	.st5{clip-path:url(#SVGID_00000046316160293861383460000016498375232075700872_);}
	.st6{fill:#FFCEA1;}
	.st7{fill:#FFFFFF;}
	.st8{clip-path:url(#SVGID_00000089551950158165370660000014082782856535895454_);}
	.st9{fill:url(#Rect치ngulo_88_00000173132919214826101140000004755111748380350652_);}
</style>
<g id="Grupo_143" transform="translate(-1264.016 -498.445)">
	
		<linearGradient id="Trazado_156_00000152258029223824935260000005052012632225636759_" gradientUnits="userSpaceOnUse" x1="1264.1487" y1="619.3749" x2="1264.1487" y2="619.0778" gradientTransform="matrix(-331.709 0 0 234.553 420653.5312 -144686.0781)">
		<stop  offset="0" style="stop-color:#BBD1BB"/>
		<stop  offset="1" style="stop-color:#EFFAEF"/>
	</linearGradient>
	<path id="Trazado_156" style="fill:url(#Trazado_156_00000152258029223824935260000005052012632225636759_);" d="M1274.7,569.8
		c0-27.2,22.1-49.3,49.3-49.3s49.3,22.1,49.3,49.3C1373.3,597,1274.7,597,1274.7,569.8z"/>
	<g id="Grupo_134" transform="translate(1264.016 576)">
		<g id="Grupo_125" transform="translate(1.85 144.954)">
			<g>
				<defs>
					<polygon id="SVGID_1_" points="11,-134.4 6.5,-124.6 110.4,-124.6 102.3,-134.4 					"/>
				</defs>
				<clipPath id="SVGID_00000112626670862639420020000006200474788496859819_">
					<use xlink:href="#SVGID_1_"  style="overflow:visible;"/>
				</clipPath>
				<g id="Grupo_124" style="clip-path:url(#SVGID_00000112626670862639420020000006200474788496859819_);">
					
						<linearGradient id="Trazado_171_00000157986887307888745520000017730081395784377269_" gradientUnits="userSpaceOnUse" x1="-1.1888" y1="-106.3761" x2="-1.0895" y2="-105.9902" gradientTransform="matrix(687.581 0 0 -64.965 865.486 -7036.3989)">
						<stop  offset="0" style="stop-color:#F0BEF4"/>
						<stop  offset="1" style="stop-color:#785F7A"/>
					</linearGradient>
					<path id="Trazado_171" style="fill:url(#Trazado_171_00000157986887307888745520000017730081395784377269_);" d="M-43.7-130.7
						l88.6,10.9l115.6-8.4l-88.6-10.9L-43.7-130.7z"/>
				</g>
			</g>
		</g>
		<g id="Grupo_127" transform="translate(53.752 6.638)">
			<g>
				<defs>
					<path id="SVGID_00000083768076541419205630000014027345588808722088_" d="M-19.7-37c-0.9,0.2-1.6,0.6-2.1,1.3
						c-0.2,0.3-0.4,0.6-0.6,0.9c-0.4,0.3-0.9,0.5-1.4,0.5c-0.2,0-0.4,0-0.5,0c-0.1,0-0.2,0-0.2,0c-0.2,0-0.4,0.2-0.4,0.4
						c0,0.1,0,0.2,0.1,0.2c0.2,0.3,0.3,0.6,0.4,0.9c-0.4,0.4-0.7,0.9-1.1,1.3c-0.2,0.3-0.3,0.7-0.3,1.1c0,0.4,0.2,0.8,0.6,1.1
						c0.4,0.3,0.9,0.5,1.4,0.6c0,0,0,0.1,0,0.1c0.7,1.4,0.9,3.3,0.5,4.9c-0.2,0.8-0.5,1.6-0.9,2.3c-0.3,0.7-0.7,1.4-1,2
						c-0.4,0.7-0.8,1.3-1.4,1.9c-0.1,0.1-0.3,0.3-0.4,0.4c0,0,0,0,0,0c-0.4,0.4-0.9,0.8-1.3,1.2c-0.9,1-1.7,2.2-1.4,3.6
						c0.3,1.6,1.7,2.7,3,3.6c1.6,3.2,3.9,6,6.6,8.4c0.2,0.8,0.5,1.6,0.7,2.4c0,0,0.1,0.1,0.1,0.1c0,0,0,0,0,0c0,0,0,0,0,0
						c0.1,0.9,0.2,1.9,0.2,2.8c0,0.9-0.4,1.8-1.2,2.1c-0.8,0.3-1.7,0.1-2.5,0.3c-0.9,0.1-1.7,0.9-2.7,0.8c-0.3,0-0.8-0.3-1.1-0.1
						c-0.3,0.3-0.3,0.7-0.2,1.1c0,0,0,0.1,0.1,0.1c0,0,0,0.1,0,0.1c0,0,0,0,0,0c1.7,0.1,3.5,0.1,5.2,0c0.9,0,1.7-0.1,2.6-0.2
						c0.7,0,1.4-0.1,2.1-0.3c0.5-0.1,1-0.5,1.2-1c0.3-0.6,0.2-1.3,0-2c-0.3-1.3-0.6-2.6-0.8-3.9c1.6,1.3,3.7,2,5.7,2.4
						c2.5,0.5,5,0.6,7.5,0.7c2.7,0.1,5.5,0.1,8.2,0.1c2.9,0,5.8,0,8.6,0.1c3.1,0.1,6.3,0.4,9.4,0.9c0,0,0,0.1,0.1,0.1c0,0,0,0,0,0
						c0,0,0,0,0,0c5.4,0.1,10.5,2.3,15.8,3.2c1.3,0.2,2.6,0.3,3.9,0.4c0.4,0,1,0.1,1.4-0.2c0.3-0.2,0.3-0.6,0.1-0.9
						c0,0,0-0.1-0.1-0.1l0,0c-0.4-0.4-1.1-0.4-1.6-0.6c-0.6-0.2-1.2-0.4-1.8-0.7c-1.1-0.6-2.2-1.3-3.2-2.1c-0.9-0.8-1.8-2.1-3.1-2.3
						c0,0,0,0,0,0c0,0,0-0.1,0-0.1c-0.2-0.9-1.4-1.1-2.2-1c-0.9,0.1-2,0.6-2.5,1.4c-2.8-2-6-3.6-9.5-3.9c-1.2-0.1-2.3,0-3.5,0.1
						c-1.1,0.1-2.3,0.2-3.4,0.1C12.1-0.2,11-0.5,9.9-0.9C8.8-1.3,7.7-1.6,6.5-1.8C4-2.3,1.4-2.5-1.2-2.4c0,0,0,0,0,0
						C-2.1-4.3-3.1-6.2-5-7.1c-2-1-4.4-1-6.6-0.8c-1.1,0.1-2.3,0.3-3.1,1.3c-1.2-0.6-1.9-1.7-2-3c0.2-1.8,0.3-3.7,0.4-5.5
						c0.1-1.6,0.3-3.3,0-5c-0.2-1.2-0.7-2.5-1.9-3.1c-0.7-0.9-1.1-2-1.3-3.1c-0.2-0.9,0-2.1,0.8-2.5c0.1,0,0.3-0.1,0.4-0.1
						c1.1-0.3,2-0.9,2.8-1.6c0.9-1,1.4-2.2,1.4-3.6c0-0.7-0.2-1.3-0.6-1.8c-0.5-0.7-1.4-0.9-2.3-1.1C-18-37.2-18.8-37.2-19.7-37"/>
				</defs>
				<clipPath id="SVGID_00000085968051742790319340000007455380211464027779_">
					<use xlink:href="#SVGID_00000083768076541419205630000014027345588808722088_"  style="overflow:visible;"/>
				</clipPath>
				<g id="Grupo_126" style="clip-path:url(#SVGID_00000085968051742790319340000007455380211464027779_);">
					
						<radialGradient id="Trazado_179_00000065789727076892462460000009098523462575843492_" cx="-52.7733" cy="33.6231" r="0.1485" gradientTransform="matrix(250.721 0 0 -159.085 13238.3838 5335.4131)" gradientUnits="userSpaceOnUse">
						<stop  offset="0" style="stop-color:#FFFFFF"/>
						<stop  offset="1" style="stop-color:#FFCEA1"/>
					</radialGradient>
					<path id="Trazado_179" style="fill:url(#Trazado_179_00000065789727076892462460000009098523462575843492_);" d="M-30.2-37.1
						h74.5v47.3h-74.5V-37.1z"/>
				</g>
			</g>
		</g>
		<g id="Grupo_129">
			<g>
				<defs>
					<rect id="SVGID_00000128465009263608658960000006345949806868171404_" x="7.8" y="-32.5" width="104.5" height="52.9"/>
				</defs>
				<clipPath id="SVGID_00000036251643731120318100000015295165989601650111_">
					<use xlink:href="#SVGID_00000128465009263608658960000006345949806868171404_"  style="overflow:visible;"/>
				</clipPath>
				<g id="Grupo_128" style="clip-path:url(#SVGID_00000036251643731120318100000015295165989601650111_);">
					<path id="Trazado_174" class="st6" d="M38.9,0.1c-0.5,1.2-1.4,2.2-2.4,2.9c0-0.3-0.1-0.6-0.1-0.9c0,0,0.1,0,0.1-0.1
						c0.2-1.5,0.3-2.9,0.5-4.4C37.1-1.2,37.9-0.3,38.9,0.1"/>
					<path id="Trazado_175" class="st7" d="M26.8-1.8C26.8-1.8,26.8-1.8,26.8-1.8c-1.3-1-2.7-2.1-3-3.7c-0.3-1.7,0.9-3.1,2-4.2
						c0.2-0.2,0.4-0.4,0.6-0.6c1,0.9,2.3,1.4,3.7,1.4h0c0.1,0.5,0.1,1,0.2,1.4c0.3,1.8,0.6,3.6,0.9,5.4c0,0.3,0.1,0.5,0.2,0.8
						c-1.4,0-2.8,0.2-4,0.6C27.2-1,27-1.4,26.8-1.8"/>
					<path id="Trazado_176" class="st7" d="M77,13.3c0,0,0-0.1-0.1-0.1c0,0,0,0,0,0h0c-5.5-1-11-1-16.5-0.8
						c-2.8,0.1-5.5,0.2-8.3,0.2c-2.6,0-5.3,0-7.9-0.4c-2.4-0.4-5-1.2-7-3c0-0.3-0.1-0.6-0.1-0.9c-0.3-1.7-0.5-3.5-0.7-5.3
						c1.2-1,2-2.2,2.5-3.7c0,0,0,0,0,0c0.7-1,1.8-1.3,2.8-1.5c1.1-0.1,2.2-0.2,3.3-0.1c2.1,0.1,4.1,0.8,5.5,2.8
						c0.7,1,1.3,2.1,1.7,3.3c0,0,0,0,0,0c0,0.1,0,0.2,0.1,0.2c2.3-0.2,4.7-0.1,7,0.4c1.1,0.2,2.3,0.5,3.4,0.8c1.1,0.4,2.1,0.7,3.2,1
						c2.3,0.5,4.5-0.3,6.8-0.4c2.1,0,4.1,0.4,6,1.3c2.2,1,4.2,2.4,6,4c0,0,0,0,0,0l-0.2,3.3C82.1,13.9,79.6,13.4,77,13.3"/>
				</g>
			</g>
		</g>
		<g id="Grupo_131" transform="translate(73.607)">
			<g>
				<defs>
					<path id="SVGID_00000036241546493703493390000007279226746255580832_" d="M-43.1-30.6C-43.1-30.7-43.1-30.6-43.1-30.6
						C-43.1-30.6-43.1-30.6-43.1-30.6 M-43.1-30.8C-43.1-30.8-43.1-30.8-43.1-30.8L-43.1-30.8 M-42.7-30.9L-42.7-30.9
						C-42.7-30.9-42.8-31-42.7-30.9 M-41.4-30.8C-41.4-30.8-41.4-30.8-41.4-30.8c-0.2-0.4-0.5-0.7-0.9-0.9c-0.4-0.2-0.9-0.1-1.2,0.2
						c-0.3,0.3-0.5,0.7-0.4,1.1c0,0.5,0.3,0.9,0.6,1.2c0.2,0.2,0.5,0.1,0.6-0.1c0.1-0.2,0.1-0.4,0-0.6c0,0,0,0-0.1-0.1l0,0
						c0-0.1-0.1-0.1-0.1-0.2l0,0c0,0,0,0,0,0c0,0,0-0.1,0-0.1c0,0,0-0.1,0-0.1c0,0,0,0,0,0c0-0.1,0-0.1,0-0.2v0c0,0,0-0.1,0-0.1
						c0,0,0,0,0,0c0,0,0-0.1,0-0.1l0,0c0,0,0,0,0.1-0.1l0,0c0,0,0,0,0.1,0l0,0l0,0l0.1,0h0l0,0c0,0,0.1,0,0.1,0c0,0,0,0,0,0
						c0,0,0.1,0,0.1,0.1l0,0c0.1,0,0.1,0.1,0.2,0.1l0,0c0,0,0,0,0,0c0,0,0,0.1,0.1,0.1c0,0.1,0.1,0.1,0.1,0.2c0,0,0,0.1,0,0.1
						c0,0,0,0.1,0.1,0.1c0,0.1,0.1,0.2,0.1,0.3c0.1,0.2,0.1,0.4,0.1,0.5c0.1,1.2,1.1,2.3,2.3,2.5c0.9,0.2,2.2,0.2,2.6,0.9
						c0.3,0.6-0.3,1.1-0.8,1.6c-0.7,0.6-1.5,1.2-1.8,2s-0.3,1.8,0.4,2.4c0.7,0.6,2,0.7,3,0.4c1.8-0.4,3.1-1.8,3.3-3.2l0-0.1
						c0.1,1.9,2.8,3.4,5.1,3c2.3-0.5,3.7-2.8,2.7-4.5c-1-1.7-4.2-2.3-6.1-1.2c0.1-1.5-0.4-3.1-1.3-4.3c-1.1-1.4-2.7-2.3-4.5-2.5
						c-0.2,0-0.4,0-0.6,0C-39.1-32.5-40.7-31.8-41.4-30.8"/>
				</defs>
				<clipPath id="SVGID_00000080891096095425993260000001640393132532010137_">
					<use xlink:href="#SVGID_00000036241546493703493390000007279226746255580832_"  style="overflow:visible;"/>
				</clipPath>
				<g id="Grupo_130" style="clip-path:url(#SVGID_00000080891096095425993260000001640393132532010137_);">
					
						<linearGradient id="Rect치ngulo_88_00000150820782277401545570000005798334562050559907_" gradientUnits="userSpaceOnUse" x1="-70.5207" y1="34.6342" x2="-70.5888" y2="34.993" gradientTransform="matrix(67.058 0 0 -44.348 4698.1865 1521.4062)">
						<stop  offset="0" style="stop-color:#F7B866"/>
						<stop  offset="1" style="stop-color:#FFF1B9"/>
					</linearGradient>
					
						<rect id="Rect치ngulo_88" x="-44" y="-32.5" style="fill:url(#Rect치ngulo_88_00000150820782277401545570000005798334562050559907_);" width="19.9" height="13.2"/>
				</g>
			</g>
		</g>
	</g>
</g>
</svg>
