<?xml version="1.0" encoding="utf-8"?>
<!-- Generator: Adobe Illustrator 26.2.1, SVG Export Plug-In . SVG Version: 6.00 Build 0)  -->
<svg version="1.1" id="Capa_1" xmlns="http://www.w3.org/2000/svg" xmlns:xlink="http://www.w3.org/1999/xlink" x="0px" y="0px"
	 viewBox="0 0 120 120" style="enable-background:new 0 0 120 120;" xml:space="preserve">
<style type="text/css">
	.st0{fill:url(#Trazado_111_00000037655671078186988010000004720463391144879265_);}
	.st1{clip-path:url(#SVGID_00000013911862742997037400000004897126214198493355_);}
	.st2{fill:url(#Trazado_112_00000090267033979239265030000009550637662216693946_);}
	.st3{fill:#E2AC7A;}
	.st4{fill:#FFFFFF;}
	.st5{fill:url(#Trazado_117_00000170986669953276892130000008924313986609634477_);}
</style>
<linearGradient id="Trazado_111_00000019658882142992753680000014864611689138036621_" gradientUnits="userSpaceOnUse" x1="2.3097" y1="100.734" x2="2.7432" y2="100.1686" gradientTransform="matrix(189.039 0 0 -17.861 -424.6768 1876.4402)">
	<stop  offset="0" style="stop-color:#F0BEF4"/>
	<stop  offset="1" style="stop-color:#785F7A"/>
</linearGradient>
<path id="Trazado_111" style="fill:url(#Trazado_111_00000019658882142992753680000014864611689138036621_);" d="M7,77.1l-5,11
	h115.9l-9-11L7,77.1z"/>
<g id="Grupo_115">
	<g>
		<defs>
			<rect id="SVGID_1_" x="1.4" y="31" width="115.9" height="55"/>
		</defs>
		<clipPath id="SVGID_00000087388280282781473550000013176112756767167674_">
			<use xlink:href="#SVGID_1_"  style="overflow:visible;"/>
		</clipPath>
		<g id="Grupo_114" style="clip-path:url(#SVGID_00000087388280282781473550000013176112756767167674_);">
			
				<linearGradient id="Trazado_112_00000065795863641668814110000010381822531219476402_" gradientUnits="userSpaceOnUse" x1="2.987" y1="116.4524" x2="2.987" y2="115.8392" gradientTransform="matrix(134.9535 0 0 -85.9286 -342.5388 10037.8604)">
				<stop  offset="0" style="stop-color:#E2AC7A"/>
				<stop  offset="1" style="stop-color:#FFE1C5"/>
			</linearGradient>
			<path id="Trazado_112" style="fill:url(#Trazado_112_00000065795863641668814110000010381822531219476402_);" d="M101.7,82.6
				c-0.4-0.4-1.2-0.5-1.7-0.7c-0.7-0.2-1.4-0.5-2.1-0.8c-1.3-0.6-2.5-1.4-3.5-2.3c-1-0.9-2-2.3-3.4-2.5h0c0,0,0-0.1,0-0.1
				c-0.2-1-1.5-1.2-2.4-1.1c-1.1,0.1-2.1,0.7-2.8,1.6c-3.1-2.2-6.7-4-10.6-4.3c-2.6-0.2-5.1,0.5-7.7,0.3c-1.3-0.2-2.6-0.5-3.8-0.9
				c-1.2-0.4-2.5-0.7-3.8-1c-2.8-0.6-5.7-0.8-8.6-0.7c0,0,0,0,0-0.1c-1-2.1-2.1-4.1-4.3-5.2c-2.3-1.1-4.9-1.1-7.4-0.9
				c-1.3,0.1-2.6,0.4-3.5,1.4l0,0c-1.3-0.6-2.2-1.9-2.3-3.3c0.2-2.1,0.4-4.1,0.5-6.2c0.2-1.8,0.2-3.7,0-5.5
				c-0.2-1.3-0.8-2.8-2.1-3.4c-0.7-1-1.2-2.2-1.5-3.4c-0.2-1,0-2.3,0.9-2.8c0.1,0,0.3-0.1,0.4-0.1c1.2-0.3,2.3-1,3.1-1.8
				c1-1.1,1.6-2.5,1.6-4c0-0.7-0.2-1.5-0.6-2c-0.7-0.7-1.6-1.1-2.5-1.2c-0.9-0.2-1.9-0.2-2.8,0c-0.9,0.2-1.8,0.7-2.4,1.5
				c-0.2,0.4-0.4,0.7-0.7,1c-0.5,0.4-1,0.6-1.6,0.5c-0.3,0-0.6,0-0.9,0c-0.3,0-0.5,0.2-0.5,0.5c0,0.1,0,0.2,0.1,0.2
				c0.2,0.3,0.4,0.7,0.5,1c-0.4,0.5-0.8,1-1.2,1.5c-0.3,0.3-0.4,0.8-0.3,1.2c0,0.5,0.3,0.9,0.6,1.2c0.5,0.4,1,0.6,1.6,0.7
				c0,0,0,0.1,0,0.1c0.8,1.7,1,3.6,0.5,5.5c-0.2,0.9-0.6,1.8-1,2.6c-0.4,0.8-0.7,1.5-1.2,2.3c-0.4,0.8-0.9,1.5-1.5,2.1
				c-0.1,0.2-0.3,0.3-0.4,0.4c0,0,0,0,0,0c-0.5,0.5-1,0.9-1.4,1.4c-1,1.1-1.9,2.4-1.6,4c0.4,1.8,1.9,3,3.3,4
				c1.8,3.6,4.3,6.7,7.3,9.3c0.3,0.9,0.5,1.8,0.8,2.7c0,0.1,0.1,0.1,0.1,0.1c0,0,0,0,0,0c0.1,1,0.2,2.1,0.2,3.1
				c0.1,1-0.5,1.9-1.4,2.4c-0.9,0.3-1.8,0.2-2.8,0.3c-1,0.1-1.9,1-3,0.9c-0.4,0-0.9-0.3-1.2-0.1c-0.4,0.3-0.3,0.8-0.2,1.2
				c0,0,0,0.1,0.1,0.1c0,0,0,0.1,0,0.2c0,0,0,0,0.1,0c1.9,0.1,3.9,0.1,5.8,0c1-0.1,1.9-0.1,2.9-0.2c0.8,0,1.6-0.1,2.4-0.3
				c0.6-0.1,1.1-0.6,1.3-1.1c0.2-0.7,0.2-1.5,0-2.2c-0.3-1.4-0.7-2.9-0.9-4.4c1.9,1.4,4,2.3,6.3,2.7c2.8,0.5,5.6,0.7,8.4,0.8
				c6.3,0.2,12.5-0.1,18.8,0.2c3.5,0.1,7,0.4,10.4,1c0,0.1,0,0.1,0.1,0.1c0,0,0,0,0,0c6,0.2,11.7,2.6,17.6,3.6
				c1.4,0.2,2.9,0.4,4.3,0.4c0.5,0.1,1.1,0,1.5-0.3C102,83.4,102,83,101.7,82.6C101.7,82.6,101.7,82.6,101.7,82.6"/>
			<path id="Trazado_113" class="st3" d="M36.1,65.5c-0.6,1.3-1.5,2.5-2.7,3.3c0-0.3-0.1-0.7-0.1-1c0,0,0.1,0,0.1-0.1
				c0.2-1.6,0.3-3.3,0.5-4.9C34.1,63.9,35,64.9,36.1,65.5"/>
			<path id="Trazado_114" class="st4" d="M22.6,63.3C22.6,63.3,22.6,63.3,22.6,63.3c-1.4-1.1-3-2.3-3.3-4.2c-0.4-1.9,1-3.5,2.3-4.7
				c0.2-0.2,0.5-0.5,0.7-0.7c1.1,1,2.6,1.6,4.1,1.6h0c0.1,0.5,0.2,1.1,0.2,1.6c0.3,2,0.6,4,1,6c0.1,0.3,0.1,0.6,0.2,0.9
				c-1.5-0.1-3.1,0.2-4.5,0.7C23,64.2,22.8,63.8,22.6,63.3"/>
			<path id="Trazado_115" class="st4" d="M78.6,80.2c0-0.1,0-0.1-0.1-0.1c0,0,0,0,0,0c-6.1-1.1-12.3-1.1-18.4-0.9
				c-3.1,0.1-6.2,0.2-9.3,0.2c-3,0.1-5.9-0.1-8.9-0.4c-2.7-0.4-5.6-1.3-7.8-3.3c-0.1-0.3-0.1-0.6-0.2-1c-0.3-1.9-0.5-3.9-0.7-5.9
				c1.3-1.1,2.3-2.5,2.8-4.1c0,0,0,0,0,0c0.8-1,1.9-1.6,3.2-1.6c1.2-0.2,2.4-0.2,3.7-0.1c2.3,0.1,4.6,0.9,6.2,3.1
				c0.8,1.2,1.4,2.4,1.9,3.7c0,0,0,0,0,0c0,0.1,0,0.2,0.1,0.2c2.6-0.2,5.2-0.1,7.8,0.4c1.3,0.2,2.5,0.6,3.8,0.9
				c1.2,0.4,2.4,0.8,3.6,1.1c2.6,0.5,5-0.3,7.6-0.4c2.3,0,4.6,0.5,6.7,1.5c2.4,1.2,4.7,2.7,6.7,4.5c0,0,0,0,0,0l-0.2,3.7
				C84.3,80.8,81.5,80.3,78.6,80.2"/>
			<path id="Trazado_116" class="st4" d="M36.1,54.8c-0.2-0.1-0.5-0.3-0.7-0.3c-0.1,0-0.1,0-0.1,0.1c0,0,0,0.1,0,0.1
				c0.2,0.3,0.4,0.5,0.7,0.7c0,0,0.1,0,0.1,0c0,0,0-0.1,0-0.1l0,0c-0.3-0.1-0.5-0.4-0.7-0.6l-0.1,0.2c0.2,0,0.5,0.1,0.7,0.3
				c0,0,0.1,0,0.1,0C36.2,54.9,36.2,54.9,36.1,54.8C36.1,54.8,36.1,54.8,36.1,54.8"/>
			
				<linearGradient id="Trazado_117_00000106831934112942540360000002341712732121106875_" gradientUnits="userSpaceOnUse" x1="7.5714" y1="113.5115" x2="7.3414" y2="113.8383" gradientTransform="matrix(42.0538 5.1636 6.2577 -50.9652 -988.5328 5801.6694)">
				<stop  offset="0" style="stop-color:#F7B866"/>
				<stop  offset="1" style="stop-color:#FFEFAE"/>
			</linearGradient>
			<path id="Trazado_117" style="fill:url(#Trazado_117_00000106831934112942540360000002341712732121106875_);" d="M53.4,57.1
				c-2.6,0-5-1-6.9-2.7c-1.9-1.7-3.1-3.9-3.5-6.4c-0.5-3.5,0.9-7.2-0.2-10.5c-0.8-2.1-2.4-3.9-4.5-4.8c-2.1-1-4.4-1.4-6.7-1.3
				l-0.4,0.1c0.9,1.8,1.1,3.9,0.6,5.8c0.3,0.3,0.5,0.8,0.4,1.3c-0.1,0.8-0.9,1.5-1.7,1.5c-0.2,0.3-0.5,0.6-0.8,0.9
				c-0.4,0.4-0.8,0.8-0.6,1.3c0.2,0.6,1.1,0.6,1.7,0.7c1.2,0.3,2.1,1.4,2.2,2.6c0,1.2-0.3,2.4-1,3.4c-0.6,1-1.4,2-2.1,3
				c-1.2,1.8-1.6,4-1.1,6.1c0.8,2.7,3.5,4.6,6.3,5.2c2.8,0.6,5.8,0,8.5-1c-0.8-0.8-1.4-1.7-1.9-2.7c1.9,0.5,4,0.5,5.9-0.2
				c-1.2-0.7-2.3-1.7-3.1-2.9C47.4,57.4,50.6,58.3,53.4,57.1"/>
		</g>
	</g>
</g>
</svg>
