<?xml version="1.0" encoding="utf-8"?>
<!-- Generator: Adobe Illustrator 26.2.1, SVG Export Plug-In . SVG Version: 6.00 Build 0)  -->
<svg version="1.0" id="Capa_1" xmlns="http://www.w3.org/2000/svg" xmlns:xlink="http://www.w3.org/1999/xlink" x="0px" y="0px"
	 viewBox="0 0 225 242" style="enable-background:new 0 0 225 242;" xml:space="preserve">
<style type="text/css">
	.st0{clip-path:url(#SVGID_00000145748306465044824210000004541175213086700973_);}
	.st1{fill:#CF000E;}
	.st2{fill:#181430;}
</style>
<g>
	<defs>
		<rect id="SVGID_1_" x="3.4" y="5.5" width="217.8" height="228.1"/>
	</defs>
	<clipPath id="SVGID_00000172413728356365854460000012059370523034822585_">
		<use xlink:href="#SVGID_1_"  style="overflow:visible;"/>
	</clipPath>
	<g id="Grupo_99" style="clip-path:url(#SVGID_00000172413728356365854460000012059370523034822585_);">
		<path id="Trazado_74" class="st1" d="M112.4,112.4c-5.7,7.9-11.9,15.6-17,24c-5,8.1-9.1,17-9.9,26.6c-0.4,5.5,0.4,11.1,2.3,16.3
			c0.2,0.4,0.9,0.3,0.7-0.2c-3.5-9.3-2.9-19.1,0.5-28.3s8.9-17.5,14.7-25.4c3.1-4.2,6.3-8.4,9.3-12.6
			C113.4,112.4,112.7,112,112.4,112.4"/>
		<path id="Trazado_75" class="st1" d="M85.2,157.2c-5.6-10.6-17.5-14.7-28.4-17.1c-11.6-2.5-23.4-4.3-34.7-8.1
			c-6.4-2.1-12.5-5.2-18.1-9c-0.2-0.1-0.4,0-0.5,0.1c0,0.1-0.1,0.2,0,0.3c5.4,15.9,12.1,31.3,19.9,46.1c2.2,4.2,4.6,8.4,7,12.6
			c0.1,0.2,0.3,0.2,0.5,0.1c0.2-0.1,0.2-0.3,0.1-0.5c-8.5-14.5-15.8-29.6-21.9-45.2c-1.7-4.4-3.4-8.8-4.9-13.3l-0.6,0.4
			c9.4,6.7,20.5,10.3,31.6,12.8c5.8,1.3,11.6,2.4,17.4,3.6c6.2,1.2,12.4,2.6,18.1,5.2c5.7,2.6,10.8,6.7,13.8,12.3
			C84.8,158,85.5,157.6,85.2,157.2"/>
		<path id="Trazado_76" class="st1" d="M40.4,185.1c-11.6-3.5-22.7-8.3-33.3-14.2c-0.2-0.1-0.4,0-0.5,0.1c0,0.1,0,0.1,0,0.2
			c-0.1,16.2,6.4,31.7,18,43c12.7,12.2,30.3,17.7,47.6,18.9c11.4,0.8,22.8,0,34.1-1.4c0.5-0.1,0.5-0.8,0-0.8
			c-18.6,2.2-37.9,3.1-55.9-2.7c-8.3-2.6-15.9-6.7-22.6-12.2c-13.1-11.2-20.5-27.6-20.4-44.9l-0.6,0.3c10.6,5.9,21.8,10.7,33.4,14.2
			C40.7,186,40.9,185.3,40.4,185.1"/>
		<path id="Trazado_77" class="st1" d="M100.8,129.1c-4.4-11.1-12.1-20.6-22-27.3c-2.5-1.7-5.4-3.5-8.5-4c-2.6-0.3-5.2,0.7-6.9,2.8
			c-1.7,2.2-2.9,4.6-3.6,7.3c-1,3.2-1.7,6.4-2.1,9.7c-1,7.7-0.2,15.6,2.2,23c0.1,0.5,0.9,0.3,0.7-0.2c-2-6.1-2.8-12.5-2.5-18.8
			c0.2-3.2,0.6-6.5,1.4-9.6c0.6-2.9,1.6-5.8,2.9-8.5c1.4-2.6,3.5-4.9,6.6-4.9c3.2-0.1,6.1,1.9,8.7,3.5c10.1,6.5,17.9,16.1,22.3,27.2
			C100.2,129.7,101,129.5,100.8,129.1"/>
		<path id="Trazado_78" class="st1" d="M113,112.8c5.6,7.7,11.5,15.2,16.6,23.3c5.1,8.2,9.4,17.2,10.2,26.9c0.4,5.5-0.4,11-2.3,16.1
			c-0.2,0.5,0.6,0.6,0.7,0.2c3.5-9.1,3-18.9-0.2-28c-3.3-9.3-8.8-17.7-14.5-25.7c-3.2-4.5-6.6-8.8-9.8-13.3
			C113.3,112,112.7,112.4,113,112.8"/>
		<path id="Trazado_79" class="st1" d="M136.5,180.9c14.6-7.1,29.6-13.5,45.3-17.4l-0.5-0.5c-4.2,10.3-3.9,21.7-7.7,32.1
			c-1.8,5.2-5,9.9-9.3,13.5c-4.1,3.2-8.9,5.6-14,6.9c-5.7,1.5-11.6,2.3-17.5,2.6c-0.5,0-0.5,0.8,0,0.8c10.4-0.6,21.6-2.1,30.3-8.3
			c4.4-3.1,7.9-7.3,10.1-12.2c2.3-5.1,3.4-10.6,4.4-16.1c1.1-6.4,2.1-12.9,4.5-18.9c0.1-0.3-0.2-0.5-0.5-0.5
			c-15.8,3.8-30.9,10.3-45.5,17.4C135.7,180.4,136,181.1,136.5,180.9"/>
		<path id="Trazado_80" class="st1" d="M90.9,180.2c-14.6-7.1-29.7-13.6-45.5-17.4c-0.2-0.1-0.6,0.2-0.5,0.5
			c4.4,10.8,3.9,22.8,8.3,33.5c2,5,5.3,9.4,9.5,12.8c4.1,3.1,8.8,5.3,13.8,6.6c5.8,1.5,11.8,2.4,17.7,2.6c0.5,0,0.5-0.7,0-0.8
			c-10.3-0.6-21.3-2.1-29.9-8.2c-4.5-3.2-8-7.6-10.1-12.7c-2.2-5.1-3.2-10.6-4.2-16c-1.1-6.1-2-12.3-4.4-18.1l-0.5,0.5
			c15.8,3.8,30.8,10.3,45.3,17.4C90.9,181.1,91.3,180.4,90.9,180.2"/>
		<path id="Trazado_81" class="st1" d="M140.1,157.6c5.8-11,18.5-14.8,29.8-17.1c11.4-2.4,23.1-4.2,34.1-8.1
			c6.1-2.1,11.8-5,17.1-8.7l-0.6-0.4c-5.4,15.9-12.1,31.3-19.9,46.1c-2.2,4.2-4.5,8.3-6.9,12.4c-0.1,0.2,0,0.4,0.2,0.5
			c0.2,0.1,0.4,0,0.5-0.1c8.5-14.5,15.8-29.6,21.9-45.2c1.8-4.5,3.4-9,5-13.5c0.1-0.2-0.1-0.4-0.3-0.5c-0.1,0-0.2,0-0.3,0
			c-9.8,7-21.5,10.5-33.1,13.1c-5.8,1.3-11.6,2.4-17.5,3.6c-6,1.2-12.1,2.7-17.7,5.5c-5.5,2.6-10,6.8-13,12.1
			C139.2,157.6,139.9,158,140.1,157.6"/>
		<path id="Trazado_82" class="st1" d="M184.5,185.9c11.6-3.6,22.8-8.3,33.4-14.2l-0.6-0.3c0.1,16.2-6.5,31.7-18.2,42.9
			c-12.8,12.1-30.6,17.3-47.8,18.4c-11,0.7-22-0.2-32.9-1.4c-0.5-0.1-0.5,0.7,0,0.8c19,2.2,38.7,3.1,57.1-3.1
			c8.1-2.6,15.7-6.8,22.2-12.3c13-11.4,20.4-27.9,20.3-45.1c0-0.2-0.2-0.4-0.4-0.4c-0.1,0-0.1,0-0.2,0
			c-10.6,5.9-21.7,10.6-33.3,14.2C183.8,185.3,184,186,184.5,185.9"/>
		<path id="Trazado_83" class="st1" d="M126,129.3c4.2-10.6,11.4-19.6,20.7-26.1c2.4-1.7,5-3.5,7.9-4.3c3.1-0.9,6.4,0.3,8.1,3.1
			c1.5,2.4,2.7,5.1,3.3,7.9c0.9,3.1,1.5,6.3,1.8,9.5c0.6,7.1-0.2,14.3-2.3,21.1c-0.1,0.5,0.6,0.7,0.7,0.2c3.1-9.8,3.4-20.2,0.8-30.1
			c-0.7-2.9-1.7-5.7-3.2-8.3c-1.2-2.3-3.4-3.8-5.9-4.3c-3.1-0.4-6,1.2-8.6,2.7c-5.1,3.1-9.6,6.9-13.5,11.4
			c-4.4,5.1-8,10.9-10.5,17.1C125.1,129.5,125.8,129.7,126,129.3"/>
		<path id="Trazado_84" class="st2" d="M78.4,160c0.1,5.6-4,9.6-6.6,14.1c-2.8,5-3.7,10.8-2.4,16.3c0.1,0.5,0.8,0.3,0.7-0.2
			c-1.3-6-0.1-12.2,3.3-17.3c2.6-4,5.8-7.9,5.8-13c0-0.2-0.2-0.4-0.4-0.4S78.4,159.8,78.4,160"/>
		<path id="Trazado_85" class="st2" d="M84.1,71.5c6,12.6,14,27.6,29.4,29.5c4,0.5,8-0.1,11.6-1.8c0.4-0.2,0.1-0.9-0.4-0.6
			c-8.5,4.1-18.3,1.1-25.1-4.9c-6.9-6-11-14.4-14.9-22.6C84.5,70.7,83.9,71.1,84.1,71.5"/>
		<path id="Trazado_86" class="st2" d="M143.6,71.2c-3.4,7.9-6.9,16.1-13.1,22.3c-5.9,5.9-15,9.4-22.9,5.1c-0.4-0.2-0.8,0.4-0.4,0.6
			c5.8,3.1,12.7,2.3,18.2-0.9c5.9-3.4,10.1-9.1,13.3-15c2.1-3.8,3.8-7.8,5.5-11.8C144.4,71.1,143.8,70.7,143.6,71.2"/>
		<path id="Trazado_87" class="st2" d="M86.3,51.3c1.5-6,3.4-12,7-17.2c3.3-5,8.5-8.5,14.4-9.7c11.9-2.3,24.1,2.4,31.4,12
			c3.5,4.9,5.8,10.6,6.7,16.5c0.1,0.5,0.8,0.3,0.7-0.2c-1.8-11-8.2-21.7-18.5-26.5c-5.9-2.7-12.4-3.7-18.8-2.9
			c-5.9,0.7-11.3,3.7-15,8.2c-4.7,5.5-7,12.5-8.7,19.5c-0.1,0.2,0.1,0.4,0.3,0.5C86,51.6,86.2,51.5,86.3,51.3"/>
		<path id="Trazado_88" class="st2" d="M82.9,66.4c-3.6-1.2-5.8-4.9-6-8.6c-0.1-2,0.6-4.2,2.5-5.1c1.7-0.8,4.2,0.1,4.2,2.2
			c0,0.2,0.2,0.4,0.4,0.4s0.4-0.2,0.4-0.4c-0.1-1.6-1.2-2.9-2.7-3.2c-1.6-0.3-3.2,0.4-4.2,1.7c-2.3,2.9-1.2,7.5,0.7,10.3
			c1.1,1.6,2.7,2.8,4.5,3.5C83.1,67.3,83.3,66.5,82.9,66.4"/>
		<path id="Trazado_89" class="st2" d="M147.7,67.1c3.3-1.2,5.7-4.1,6.3-7.6c0.5-1.9,0.3-3.9-0.7-5.7c-0.8-1.4-2.3-2.3-4-2.3
			c-1.8,0.1-3.2,1.5-3.3,3.3c0,0.2,0.2,0.4,0.4,0.4s0.4-0.2,0.4-0.4c0-2.1,2.4-3.1,4.2-2.2c1.9,0.9,2.6,3.1,2.5,5.1
			c-0.2,3.6-2.5,7.4-6,8.6C147.1,66.5,147.2,67.3,147.7,67.1"/>
		<path id="Trazado_90" class="st2" d="M125,98.3c-1,6.7-2.1,14.1,1.1,20.4c3.2,6.1,9.9,8.7,16.1,10.8c4.1,1.4,8.4,2.8,11.9,5.5
			c0.4,0.3,0.9-0.2,0.5-0.5c-6.9-5.3-16.2-5.7-23.1-10.8c-8.2-6-7-16.4-5.7-25.2C125.8,98,125.1,97.8,125,98.3"/>
		<path id="Trazado_91" class="st2" d="M125.1,145.9c10.7-0.5,21.8-3.1,29.6-10.7c0.3-0.3-0.2-0.9-0.5-0.5
			c-7.7,7.5-18.6,10-29.1,10.5C124.6,145.1,124.6,145.9,125.1,145.9"/>
		<path id="Trazado_92" class="st2" d="M124.7,107.6c2.2-3.9,7.1-5.5,10.7-7.8c4.5-2.8,8.8-6,12.7-9.6c7.6-7,13.5-16.3,14-26.8
			c0.3-6.5-1.3-12.9-3.4-19c-0.2-0.5-0.9-0.3-0.7,0.2c2.1,5.4,3.2,11.1,3.4,16.9c0,5.5-1.3,10.8-3.9,15.6
			c-5,9.5-13.8,16.5-22.7,22.2c-3.7,2.3-8.5,3.9-10.7,7.9C123.8,107.6,124.5,108,124.7,107.6"/>
		<path id="Trazado_93" class="st2" d="M102,96.5c1.1,3.6,1.6,7.4,1.7,11.2c0.2,4-1,7.9-3.3,11.2c-5.7,7.8-16.4,5.7-24,10.2
			c-3.5,2.1-6.2,5.9-5.7,10.1c0.1,0.5,0.8,0.5,0.8,0c-0.6-4.7,3-8.5,7-10.3c4.2-1.9,8.9-2.2,13.3-3.5c3.8-1,7.2-3.2,9.5-6.4
			c2.1-3.1,3.2-6.7,3.1-10.4c0.1-4.2-0.5-8.3-1.7-12.3c-0.1-0.2-0.3-0.3-0.5-0.3C102.1,96.1,102,96.3,102,96.5"/>
		<path id="Trazado_94" class="st2" d="M154.9,34.7c-2.4-6.3-4.9-12.8-9.1-18.2c-3.8-4.8-8.9-8.4-15.1-9.4c-3.3-0.5-6.7-0.6-10-0.5
			c-3.6,0.1-7.3,0-10.9-0.4c-6.5-0.8-13.4-1.8-19.1,2.2c-5.1,3.6-8.3,9.6-11.3,15c-3.6,6.5-7,13.2-10,20c-2.8,6.3-5.1,13.2-4.4,20.3
			c0.6,6.3,3.7,12,7.4,17.1c2.1,2.9,4.4,5.6,6.7,8.3c2.5,3.1,5.3,6,8.4,8.5c2.1,1.5,4.4,2.6,6.9,3.4c3.4,1.1,6.4,3,8.7,5.7
			c0.3,0.4,0.8-0.2,0.5-0.5c-1.9-2.2-4.2-3.9-6.9-5c-2.1-0.9-4.3-1.4-6.3-2.4c-2.7-1.3-5-3.6-7-5.8c-2.2-2.3-4.2-4.8-6.3-7.2
			c-4.1-4.9-8.1-10.2-10.2-16.3c-2.2-6.5-1.4-13.3,0.8-19.8c2.3-6.7,5.7-13.1,9-19.5c3-5.8,6-12,10.3-17.1c1.8-2.3,4.2-4.2,6.8-5.5
			c3.2-1.5,6.9-1.5,10.4-1.2c3.4,0.3,6.8,0.9,10.2,1.1c3.3,0.2,6.7,0,10,0c3.9-0.1,7.8,0.6,11.4,2c3,1.4,5.7,3.4,8,5.9
			c5.1,5.6,7.8,12.7,10.4,19.7C154.3,35.4,155.1,35.2,154.9,34.7"/>
		<path id="Trazado_95" class="st2" d="M71.3,140c11.2,2.4,22.5,4.2,33.9,5.2c0.5,0,0.5-0.7,0-0.8c-11.3-1-22.6-2.8-33.7-5.2
			C71,139.2,70.8,139.9,71.3,140"/>
		<path id="Trazado_96" class="st2" d="M71.4,136c-4.5,5.7-8.1,12.1-10.5,19c-2.5,7.4-3.3,15.2-6.2,22.5c-1.5,3.9-3.8,7.4-6.9,10.2
			c-0.4,0.3,0.2,0.8,0.5,0.5c5.3-4.7,7.8-11.5,9.5-18.2c1-3.9,1.7-7.8,2.8-11.7c1.1-3.7,2.5-7.3,4.2-10.8c2-3.9,4.3-7.6,7-11
			C72.2,136.1,71.7,135.6,71.4,136"/>
		<path id="Trazado_97" class="st2" d="M154,135.8c8.6,3.6,13.1,12.6,15.4,21.1c2.5,9.2,3.1,18.9,7.2,27.6c1.9,4.3,4.9,8.1,8.7,10.9
			c0.4,0.3,0.8-0.4,0.4-0.6c-7.7-5.7-10.7-15.3-12.6-24.2c-1.9-9.3-3.2-19.2-8.8-27.2c-2.5-3.7-6-6.6-10.1-8.4
			C153.8,134.9,153.6,135.7,154,135.8"/>
		<path id="Trazado_98" class="st2" d="M85.3,221.9c-0.7-6.1-0.4-12.6-3.4-18.2c-0.2-0.4-0.9,0-0.6,0.4c2.9,5.5,2.6,11.8,3.3,17.8
			C84.6,222.3,85.3,222.4,85.3,221.9"/>
		<path id="Trazado_99" class="st2" d="M113.3,139c-6.7,0.2-8.8,8.3-10.4,13.5c-1,3.5-1.8,7-2.4,10.6c-0.5,3.3-0.6,6.6-1.2,9.8
			c-0.6,3.5-1.8,6.6-4.8,8.8c-2.6,1.9-5.9,3-8.9,4.1c-6.9,2.6-14,4.8-21.1,7c-8.2,2.5-16.4,4.8-24.6,7.1c-0.2,0.1-0.3,0.3-0.3,0.5
			c0.1,0.2,0.3,0.3,0.5,0.3c14.4-4,28.9-8.1,43-13.1c5.4-1.9,12.4-3.6,15.3-9.1c1.2-2.6,1.9-5.4,2-8.2c0.3-3.6,0.8-7.1,1.5-10.6
			c0.8-4,2-7.9,3.4-11.8c1.4-3.7,3.5-7.9,8-8.1c0.2,0,0.4-0.2,0.4-0.4S113.5,139,113.3,139"/>
		<path id="Trazado_100" class="st2" d="M101.3,191.5c1.7,3.2,5.6,4.4,8.8,2.7c1.4-0.8,2.6-2.1,3.1-3.6c1.4-3.4,1.5-7.4,1.6-11
			c0-4.3-0.2-8.7-0.6-13c0-0.5-0.8-0.5-0.8,0c0.6,7,1.2,14.2-0.2,21.1c-0.6,2.8-1.8,5.8-4.9,6.5c-2.6,0.6-5.2-0.6-6.4-3
			C101.7,190.7,101.1,191.1,101.3,191.5"/>
		<path id="Trazado_101" class="st2" d="M114.2,167.8c0.2-5.2,0.4-10.5,0.6-15.7l0.3-7.8c0-1.2,0-2.4,0.2-3.6c0.3-1.4,1.6-2.3,3-2
			c2.5,0.2,3.7,2.5,4.6,4.6c0.9,2.3,1.7,4.6,2.5,7c1.5,4.8,2.7,9.7,3.5,14.6c1,5.7,1.5,11.4,1.5,17.1c0,0.2,0.2,0.4,0.4,0.4
			s0.4-0.2,0.4-0.4c-0.1-11.4-2-22.7-5.6-33.5c-0.7-2.5-1.6-4.9-2.7-7.2c-0.8-1.7-2.3-2.9-4.1-3.3c-1.5-0.4-3.1,0.3-3.9,1.7
			c-0.3,1-0.5,2.1-0.4,3.2c-0.1,1.6-0.1,3.1-0.2,4.7l-0.7,20.4C113.4,168.3,114.2,168.3,114.2,167.8"/>
		<path id="Trazado_102" class="st2" d="M114,189c0.2,2.5,1.7,4.6,3.9,5.6c2.4,1.1,5.1,0.9,7.4-0.5c0.4-0.3,0-0.9-0.4-0.6
			c-2,1.3-4.5,1.5-6.6,0.5c-2-0.9-3.4-2.8-3.6-5C114.8,188.5,114,188.5,114,189"/>
		<path id="Trazado_103" class="st2" d="M130.4,182.7c13.3,4.5,26.8,8.4,40.4,11.7c0.5,0.1,0.7-0.6,0.2-0.7
			c-13.6-3.3-27.1-7.2-40.4-11.7C130.1,181.9,129.9,182.6,130.4,182.7"/>
		<path id="Trazado_104" class="st2" d="M149.7,158.5c-3,4.8,1.3,9.7,3.7,13.7c3,5,3.9,11.1,2.4,16.8c0,0.2,0.1,0.4,0.3,0.4
			c0.2,0,0.4-0.1,0.4-0.2c1.3-4.9,0.9-10.1-1.1-14.7c-2-4.6-8.3-10.1-5-15.5C150.6,158.5,150,158.1,149.7,158.5"/>
		<path id="Trazado_105" class="st2" d="M144.8,217.3c-0.3-4.7,0.8-9.5,3.2-13.6c0.1-0.2,0-0.4-0.1-0.5c-0.2-0.1-0.4,0-0.5,0.1
			c-2.5,4.2-3.6,9.1-3.3,14C144.1,217.8,144.8,217.8,144.8,217.3"/>
		<path id="Trazado_106" class="st2" d="M125.5,194.6c14.7,4.9,28.8,11.2,42.4,18.7c0.4,0.2,0.8-0.4,0.4-0.6
			c-13.6-7.6-27.8-13.9-42.5-18.8C125.2,193.7,125,194.5,125.5,194.6"/>
		<path id="Trazado_107" class="st2" d="M103.2,193.7c-16,5.4-31.4,12.5-45.9,21.3c-0.2,0.1-0.2,0.3-0.1,0.5
			c0.1,0.2,0.3,0.2,0.5,0.1c14.4-8.7,29.8-15.8,45.7-21.2C103.8,194.3,103.6,193.5,103.2,193.7"/>
	</g>
</g>
</svg>
