<?xml version="1.0" encoding="utf-8"?>
<!-- Generator: Adobe Illustrator 26.2.1, SVG Export Plug-In . SVG Version: 6.00 Build 0)  -->
<svg version="1.0" id="Capa_1" xmlns="http://www.w3.org/2000/svg" xmlns:xlink="http://www.w3.org/1999/xlink" x="0px" y="0px"
	 viewBox="0 0 124 123" style="enable-background:new 0 0 124 123;" xml:space="preserve">
<style type="text/css">
	.st0{fill:#E7FFC6;}
	.st1{clip-path:url(#SVGID_00000049210637530291504060000006827245669858225590_);}
	.st2{fill:#FBEBF5;}
	.st3{fill:#FFE6F5;}
	.st4{fill:#FFF8FD;}
	.st5{fill:#FFF4AA;}
</style>
<path id="Sustracción_6" class="st0" d="M12.5,95.2L12.5,95.2c-1.3-2.6-2.2-5.4-2.7-8.2c-0.5-2.8-0.5-5.7-0.1-8.5
	c1.3-9.6,7.7-17.6,16.7-21.2c3.3-1.3,6.9-1.9,10.4-1.9c3.6,0.1,7.2,0.8,10.5,2.2c7,3,12.6,8.6,15.6,15.6c1.4,3.3,2.2,6.9,2.2,10.5
	c0.1,3.6-0.6,7.1-1.9,10.4c-3.5,8.9-11.4,15.2-20.9,16.6c-2.8,0.4-5.6,0.4-8.3,0c-2.8-0.4-5.6-1.3-8.1-2.5l2.4-15.6L12.5,95.2
	L12.5,95.2z"/>
<g id="Grupo_43" transform="translate(63.075) rotate(30)">
	<g>
		<defs>
			<rect id="SVGID_1_" x="17.5" y="-4.4" transform="matrix(0.5 -0.866 0.866 0.5 5.4173 39.6015)" width="39.1" height="39.1"/>
		</defs>
		<clipPath id="SVGID_00000124153504527005207610000008850451353751234199_">
			<use xlink:href="#SVGID_1_"  style="overflow:visible;"/>
		</clipPath>
		<g id="Grupo_38" style="clip-path:url(#SVGID_00000124153504527005207610000008850451353751234199_);">
			<path id="Trazado_16" class="st2" d="M46.8,10.5c-2.1,0-4.3,0.3-6.3,1.1c0.7-2,1.1-4.1,1.1-6.3c0-5.4-4.6-9.8-4.6-9.8
				s-4.6,4.4-4.6,9.8c0,2.1,0.3,4.3,1.1,6.3c-2-0.7-4.1-1.1-6.3-1.1c-5.4,0-9.8,4.6-9.8,4.6s4.4,4.6,9.8,4.6c2.1,0,4.3-0.3,6.3-1.1
				c-0.7,2-1.1,4.1-1.1,6.3c0,5.4,4.6,9.8,4.6,9.8s4.6-4.4,4.6-9.8c0-2.1-0.3-4.3-1.1-6.3c2,0.7,4.1,1.1,6.3,1.1
				c5.4,0,9.8-4.6,9.8-4.6S52.2,10.5,46.8,10.5"/>
			<path id="Trazado_17" class="st3" d="M42,15.1c1.9-0.9,3.7-2.1,5.2-3.7C51,7.6,50.8,1.3,50.8,1.3S44.5,1.1,40.7,5
				c-1.5,1.5-2.8,3.2-3.7,5.2c-0.9-1.9-2.1-3.7-3.7-5.2c-3.8-3.8-10.1-3.7-10.1-3.7S23,7.6,26.9,11.4c1.5,1.5,3.2,2.8,5.2,3.7
				c-1.9,0.9-3.7,2.1-5.2,3.7c-3.8,3.8-3.7,10.1-3.7,10.1s6.3,0.1,10.1-3.7c1.5-1.5,2.8-3.2,3.7-5.2c0.9,1.9,2.1,3.7,3.7,5.2
				c3.8,3.8,10.1,3.7,10.1,3.7s0.1-6.3-3.7-10.1C45.7,17.3,43.9,16,42,15.1"/>
			<path id="Trazado_18" class="st4" d="M39.1,13c0.4-1.2,0.7-2.5,0.6-3.8c0-3.3-2.8-6-2.8-6s-2.8,2.7-2.8,6c0,1.3,0.2,2.6,0.6,3.8
				c-1.2-0.4-2.5-0.7-3.8-0.6c-3.3,0-6,2.8-6,2.8s2.7,2.8,6,2.8c1.3,0,2.6-0.2,3.8-0.6c-0.4,1.2-0.7,2.5-0.6,3.8c0,3.3,2.8,6,2.8,6
				s2.8-2.7,2.8-6c0-1.3-0.2-2.6-0.6-3.8c1.2,0.4,2.5,0.7,3.8,0.6c3.3,0,6-2.8,6-2.8s-2.7-2.8-6-2.8C41.7,12.3,40.4,12.5,39.1,13"/>
			<path id="Trazado_19" class="st5" d="M41.6,15.1c0-2.5-2-4.6-4.6-4.6c-2.5,0-4.6,2-4.6,4.6c0,2.5,2,4.6,4.6,4.6
				S41.6,17.6,41.6,15.1L41.6,15.1"/>
		</g>
	</g>
</g>
</svg>
