<?xml version="1.0" encoding="utf-8"?>
<!-- Generator: Adobe Illustrator 26.1.0, SVG Export Plug-In . SVG Version: 6.00 Build 0)  -->
<svg version="1.0" id="Capa_1" xmlns="http://www.w3.org/2000/svg" xmlns:xlink="http://www.w3.org/1999/xlink" x="0px" y="0px"
	 viewBox="0 0 50 50" style="enable-background:new 0 0 50 50;" xml:space="preserve">
<style type="text/css">
	.st0{fill:#24193E;}
	.st1{fill:#DB0F15;}
</style>
<g>
	<g>
		<path class="st0" d="M25,39.8c-0.5,1.5-1.4,2.9-2.6,4c-0.1,0.1-0.2,0.2-0.3,0.3c0.3-0.5,0.4-1.1,0.5-1.7c0.1-1.2-0.2-2.3-0.7-3.4
			c-1.1-2.2-3.2-3.6-5.4-4.7c0,0,0,0,0-0.1c-0.1-1,0.6-1.7,1.1-2.5c0.4-0.8,0.6-1.8,0.3-2.7c-0.1-0.4-0.3-1.1-0.8-1.1
			c-0.2,0-0.5,0.1-0.6,0.2c-0.2,0.1-0.3,0.2-0.5,0.3c-0.7,0.4-1.2,1-1.7,1.7c-0.5,0.8-0.8,1.6-0.8,2.5c0,0,0,0.1,0,0.1
			c-0.2-0.1-0.3-0.2-0.5-0.2c-1-0.5-1.9-1-2.8-1.7c-0.8-0.7-1.4-1.5-1.7-2.5c-0.1-0.5-0.2-1-0.1-1.5c0.1-0.5,0.3-1,0.5-1.5
			c0.2-0.5,0.5-0.9,0.8-1.4c0.6,0.4,1.2,0.7,1.9,0.8c0.8,0.1,1.7,0.1,2.5-0.1c0.9-0.2,1.7-0.4,2.5-0.7c0.9-0.4,1.7-0.9,2.6-1.4
			c0.9-0.5,2-1,3.1-0.9c0.3,0,0.4-0.4,0.1-0.5c-2.4-1-5-1.5-7.6-1.4c-0.5,0-1,0.1-1.5,0.1c0.6-0.8,1-1.7,1.3-2.7
			c0.2-0.6,0.3-1.2,0.4-1.8c0.1-0.5,0.1-1,0.2-1.5c0.1-0.5,0.3-1,0.7-1.3c0.3-0.2,0.1-0.6-0.2-0.5c-1.8,0.3-3.6,1-5,2.1
			c-1.4,1.1-2.4,2.6-2.8,4.4c-0.2,0.9-0.2,1.9,0.1,2.8c-1.6,1.5-2.8,3.5-3.7,5.5C3.5,28.8,3,31.1,3,33.4c0.1,2.2,0.7,4.4,1.8,6.4
			c0.7,1.2,1.6,2.3,2.6,3.3c-0.7,0.2-1.5,0.4-2.1,0.9C4.7,44.4,4.2,45.2,4,46c0,0.3,0,0.5,0.3,0.6c0.2,0.1,0.4,0.1,0.6,0.2
			C5.2,46.9,5.6,47,6,47c0.8,0,1.6-0.2,2.3-0.4c0.8-0.3,1.5-0.7,2.1-1.3c1.6,0.9,3.4,1.6,5.2,1.8c1.7,0.2,3.7-0.1,5.1-1.2
			c-0.5,1-1.2,2-2.1,2.8c-0.3,0.3-0.7,0.6-1.1,0.9c-0.3,0.2,0,0.7,0.3,0.5c1.4-1,2.6-2.3,3.4-3.9c0.1-0.3,0.3-0.6,0.4-0.9
			c0,0,0,0,0,0c1.4-1,2.6-2.3,3.4-3.9c0.2-0.4,0.4-0.9,0.6-1.4C25.6,39.6,25.1,39.5,25,39.8z M14,32.8c0.1-1.4,0.8-2.7,1.9-3.5
			c0.3-0.2,0.6-0.4,0.9-0.5c0,0,0.1,0,0.1,0c0,0,0.1,0,0.1,0c0,0,0,0,0,0c0,0,0.1,0.1,0.1,0.1c0.1,0.2,0.2,0.3,0.2,0.5
			c0.2,0.8,0.1,1.6-0.3,2.3c-0.4,0.8-1.1,1.5-1.1,2.5c-0.7-0.4-1.4-0.7-2.1-1C13.9,33,14,32.9,14,32.8z M6.4,46.4c-0.3,0-0.7,0-1,0
			c-0.1,0-0.3,0-0.4-0.1c-0.1,0-0.1,0-0.2-0.1c-0.1,0-0.2,0-0.2-0.1c0,0,0-0.1,0-0.1c0-0.1,0-0.2,0.1-0.3c0.1-0.2,0.1-0.3,0.2-0.5
			c0.2-0.3,0.4-0.6,0.7-0.8c0.6-0.5,1.3-0.7,2-0.9c0,0,0,0,0,0c0.1,0,0.2-0.1,0.2-0.1c0,0,0.1,0,0.1,0c0.5,0.4,1,0.8,1.5,1.2
			c0.1,0.1,0.3,0.2,0.4,0.3C8.9,45.8,7.7,46.3,6.4,46.4z M11.2,45.1c-1.9-1-3.6-2.5-4.9-4.2c-1.3-1.7-2.2-3.8-2.6-5.9
			c-0.3-2.2-0.1-4.4,0.6-6.5C5,26.3,6,24.3,7.5,22.6c0.3-0.4,0.7-0.8,1.1-1.1c0,0,0,0,0,0c0.1,0,0.1-0.1,0.1-0.2c0,0,0,0,0,0
			c0,0,0,0,0,0c0,0,0,0,0,0c0,0,0,0,0,0c-0.5-1.6-0.2-3.3,0.6-4.7c0.9-1.5,2.3-2.5,3.8-3.2c0.6-0.3,1.3-0.5,2-0.6
			c-0.3,0.6-0.4,1.4-0.5,2.1c-0.1,1.2-0.4,2.4-0.9,3.5c-0.3,0.6-0.7,1.2-1.1,1.7c-0.2,0.2,0,0.5,0.3,0.5c2.5-0.4,5-0.2,7.4,0.5
			c0.3,0.1,0.6,0.2,0.8,0.3c-1.4,0.3-2.7,1.4-4,2c-0.8,0.4-1.7,0.6-2.5,0.9c-0.8,0.2-1.6,0.3-2.4,0.3c-0.9-0.1-1.7-0.4-2.3-1
			c-0.1-0.1-0.2-0.1-0.3-0.1c-0.1,0-0.1,0.1-0.2,0.1c-0.6,1-1.4,2-1.6,3.2c-0.2,1.1,0.1,2.2,0.6,3.1c0.6,0.9,1.4,1.6,2.3,2.2
			c0.9,0.6,1.9,1.1,2.9,1.6c2.2,1.1,4.6,2.1,6.4,3.9c1.5,1.5,2.6,3.9,1.8,6c-0.7,1.9-2.6,2.8-4.5,3C15.1,46.6,13,46.1,11.2,45.1z"/>
		<path class="st0" d="M9.4,39c-2.1-1.5-3.5-4-3.8-6.6c-0.1-0.7-0.1-1.5,0-2.2c0-0.2,0-0.3-0.2-0.4c-0.1,0-0.3,0-0.4,0.2
			c-0.4,2.8,0.4,5.7,2.3,7.9c0.5,0.6,1.1,1.1,1.7,1.6c0.1,0.1,0.3,0,0.4-0.1C9.6,39.3,9.5,39.1,9.4,39z"/>
	</g>
	<g>
		<g>
			<path class="st1" d="M45.7,23.3c0.9-2.1,1.4-4.4,1.3-6.7c-0.1-2.2-0.7-4.4-1.8-6.4c-0.7-1.2-1.6-2.3-2.6-3.3
				c0.7-0.2,1.5-0.4,2.1-0.9C45.3,5.6,45.8,4.8,46,4c0-0.3,0-0.5-0.3-0.6c-0.2-0.1-0.4-0.1-0.6-0.2C44.8,3.1,44.4,3,44,3
				c-0.8,0-1.6,0.2-2.3,0.4c-0.8,0.3-1.5,0.7-2.1,1.3c-1.6-0.9-3.4-1.6-5.2-1.8c-1.7-0.2-3.7,0.1-5.1,1.2c0.5-1,1.2-2,2.1-2.8
				c0.3-0.3,0.7-0.6,1.1-0.9c0.3-0.2,0-0.7-0.3-0.5c-1.4,1-2.6,2.3-3.4,3.9c-0.1,0.3-0.3,0.6-0.4,0.9c0,0,0,0,0,0
				c-1.4,1-2.6,2.3-3.4,3.9c-0.2,0.4-0.4,0.9-0.6,1.4c-0.1,0.4,0.4,0.5,0.6,0.2c0.5-1.5,1.4-2.9,2.6-4C27.7,6,27.8,6,27.9,5.9
				c-0.3,0.5-0.4,1.1-0.5,1.7c-0.1,1.2,0.2,2.3,0.7,3.4c1.1,2.2,3.2,3.6,5.4,4.7c0,0,0,0,0,0.1c0.1,1-0.6,1.7-1.1,2.5
				c-0.4,0.8-0.6,1.8-0.3,2.7c0.1,0.4,0.3,1.1,0.8,1.1c0.2,0,0.5-0.1,0.6-0.2c0.2-0.1,0.3-0.2,0.5-0.3c0.7-0.4,1.2-1,1.7-1.7
				c0.5-0.8,0.8-1.6,0.8-2.5c0,0,0-0.1,0-0.1c0.2,0.1,0.3,0.2,0.5,0.2c1,0.5,1.9,1,2.8,1.7c0.8,0.7,1.4,1.5,1.7,2.5
				c0.1,0.5,0.2,1,0.1,1.5c-0.1,0.5-0.3,1-0.5,1.5c-0.2,0.5-0.5,0.9-0.8,1.4c-0.6-0.4-1.2-0.7-1.9-0.8c-0.8-0.1-1.7-0.1-2.5,0.1
				c-0.9,0.2-1.7,0.4-2.5,0.7c-0.9,0.4-1.7,0.9-2.6,1.4c-0.9,0.5-2,1-3.1,0.9c-0.3,0-0.4,0.4-0.1,0.5c2.4,1,5,1.5,7.6,1.4
				c0.5,0,1-0.1,1.5-0.1c-0.6,0.8-1,1.7-1.3,2.7c-0.2,0.6-0.3,1.2-0.4,1.8c-0.1,0.5-0.1,1-0.2,1.5c-0.1,0.5-0.3,1-0.7,1.3
				c-0.3,0.2-0.1,0.6,0.2,0.5c1.8-0.3,3.6-1,5-2.1c1.4-1.1,2.4-2.6,2.8-4.4c0.2-0.9,0.2-1.9-0.1-2.8C43.6,27.3,44.8,25.4,45.7,23.3z
				 M43.6,3.6c0.3,0,0.7,0,1,0c0.1,0,0.3,0,0.4,0.1c0.1,0,0.1,0,0.2,0.1c0.1,0,0.2,0,0.2,0.1c0,0,0,0.1,0,0.1c0,0.1,0,0.2-0.1,0.3
				c-0.1,0.2-0.1,0.3-0.2,0.5c-0.2,0.3-0.4,0.6-0.7,0.8c-0.6,0.5-1.3,0.7-2,0.9c0,0,0,0,0,0c-0.1,0-0.2,0.1-0.2,0.1c0,0-0.1,0-0.1,0
				c-0.5-0.4-1-0.8-1.5-1.2c-0.1-0.1-0.3-0.2-0.4-0.3C41.1,4.2,42.3,3.7,43.6,3.6z M36,17.2c-0.1,1.4-0.8,2.7-1.9,3.5
				c-0.3,0.2-0.6,0.4-0.9,0.5c0,0-0.1,0-0.1,0c0,0-0.1,0-0.1,0c0,0,0,0,0,0c0,0-0.1-0.1-0.1-0.1c-0.1-0.2-0.2-0.3-0.2-0.5
				c-0.2-0.8-0.1-1.6,0.3-2.3c0.4-0.8,1.1-1.5,1.1-2.5c0.7,0.4,1.4,0.7,2.1,1C36.1,17,36,17.1,36,17.2z M40.8,33.5
				c-0.9,1.5-2.3,2.5-3.8,3.2c-0.6,0.3-1.3,0.5-2,0.6c0.3-0.6,0.4-1.4,0.5-2.1c0.1-1.2,0.4-2.4,0.9-3.5c0.3-0.6,0.7-1.2,1.1-1.7
				c0.2-0.2,0-0.5-0.3-0.5c-2.5,0.4-5,0.2-7.4-0.5c-0.3-0.1-0.6-0.2-0.8-0.3c1.4-0.3,2.7-1.4,4-2c0.8-0.4,1.7-0.6,2.5-0.9
				c0.8-0.2,1.6-0.3,2.4-0.3c0.9,0.1,1.7,0.4,2.3,1c0.1,0.1,0.2,0.1,0.3,0.1c0.1,0,0.1-0.1,0.2-0.1c0.6-1,1.4-2,1.6-3.2
				c0.2-1.1-0.1-2.2-0.6-3.1c-0.6-0.9-1.4-1.6-2.3-2.2c-0.9-0.6-1.9-1.1-2.9-1.6c-2.2-1.1-4.6-2.1-6.4-3.9c-1.5-1.5-2.6-3.9-1.8-6
				c0.7-1.9,2.6-2.8,4.5-3c2.1-0.2,4.2,0.4,6,1.4c1.9,1,3.6,2.5,4.9,4.2c1.3,1.7,2.2,3.8,2.6,5.9c0.3,2.2,0.1,4.4-0.6,6.5
				c-0.7,2.1-1.7,4.2-3.2,5.8c-0.3,0.4-0.7,0.8-1.1,1.1c0,0,0,0,0,0c-0.1,0-0.1,0.1-0.1,0.2c0,0,0,0,0,0c0,0,0,0,0,0c0,0,0,0,0,0
				c0,0,0,0,0,0C41.9,30.4,41.6,32.1,40.8,33.5z"/>
			<path class="st1" d="M44.4,19.8c0,0.2,0,0.3,0.2,0.4c0.1,0,0.3,0,0.4-0.2c0.4-2.8-0.4-5.7-2.3-7.9c-0.5-0.6-1.1-1.1-1.7-1.6
				c-0.1-0.1-0.3,0-0.4,0.1c-0.1,0.1,0,0.3,0.1,0.4c2.1,1.5,3.5,4,3.8,6.6C44.5,18.3,44.5,19.1,44.4,19.8z"/>
		</g>
		<ellipse transform="matrix(0.4376 -0.8992 0.8992 0.4376 11.3958 37.1446)" class="st1" cx="35.4" cy="9.5" rx="3.2" ry="4.5"/>
	</g>
	<ellipse transform="matrix(0.4376 -0.8992 0.8992 0.4376 -28.2865 36.3099)" class="st0" cx="14.9" cy="40.8" rx="3.2" ry="4.5"/>
</g>
</svg>
